<svg width="25" height="24" viewBox="0 0 25 24" fill="none" xmlns="http://www.w3.org/2000/svg">
<path d="M9.28572 0C11.7484 0 14.1103 0.935778 15.8517 2.60147C17.5931 4.26717 18.5714 6.52634 18.5714 8.88199C18.5714 11.082 17.7286 13.1043 16.3429 14.6621L16.7286 15.0311H17.8571L25 21.8634L22.8571 23.913L15.7143 17.0807V16.0012L15.3286 15.6323C13.7 16.9578 11.5857 17.764 9.28572 17.764C6.82299 17.764 4.46113 16.8282 2.71972 15.1625C0.978313 13.4968 0 11.2376 0 8.88199C0 6.52634 0.978313 4.26717 2.71972 2.60147C4.46113 0.935778 6.82299 0 9.28572 0ZM9.28572 2.73292C5.71429 2.73292 2.85714 5.46584 2.85714 8.88199C2.85714 12.2981 5.71429 15.0311 9.28572 15.0311C12.8571 15.0311 15.7143 12.2981 15.7143 8.88199C15.7143 5.46584 12.8571 2.73292 9.28572 2.73292Z" fill="#D9D9D9"/>
</svg>
