<svg width="16" height="15" viewBox="0 0 16 15" fill="none" xmlns="http://www.w3.org/2000/svg">
<path d="M6.49501 0.54541C7.97265 0.54541 9.38976 1.10572 10.4346 2.10307C11.4795 3.10042 12.0664 4.45312 12.0664 5.86359C12.0664 7.18086 11.5607 8.39177 10.7293 9.3245L10.9607 9.54541H11.6379L15.9236 13.6363L14.6379 14.8636L10.3522 10.7727V10.1263L10.1207 9.90541C9.14358 10.699 7.87501 11.1818 6.49501 11.1818C5.01738 11.1818 3.60026 10.6215 2.55542 9.62411C1.51057 8.62676 0.923584 7.27406 0.923584 5.86359C0.923584 4.45312 1.51057 3.10042 2.55542 2.10307C3.60026 1.10572 5.01738 0.54541 6.49501 0.54541ZM6.49501 2.18177C4.35216 2.18177 2.63787 3.81814 2.63787 5.86359C2.63787 7.90905 4.35216 9.54541 6.49501 9.54541C8.63787 9.54541 10.3522 7.90905 10.3522 5.86359C10.3522 3.81814 8.63787 2.18177 6.49501 2.18177Z" fill="#D9D9D9"/>
</svg>
