<svg width="53" height="55" viewBox="0 0 53 55" fill="none" xmlns="http://www.w3.org/2000/svg">
<path d="M26.231 0.515076C11.7672 0.515076 0 12.6226 0 27.5046C0 42.3867 11.7672 54.4942 26.231 54.4942C40.6947 54.4942 52.4619 42.3867 52.4619 27.5046C52.4619 12.6226 40.6947 0.515076 26.231 0.515076ZM32.6863 38.8556C33.6176 39.8137 33.6176 41.3673 32.6863 42.3255C32.2208 42.8044 31.6105 43.0441 31.0002 43.0441C30.3899 43.0441 29.7796 42.8046 29.3141 42.3253L16.5961 29.2398C16.1489 28.7797 15.8976 28.1557 15.8976 27.505C15.8976 26.8543 16.1487 26.2301 16.5961 25.7699L29.3141 12.6838C30.2453 11.7256 31.7552 11.7256 32.6865 12.6838C33.6178 13.6418 33.6178 15.1954 32.6865 16.1536L21.6547 27.505L32.6863 38.8556Z" fill="black"/>
</svg>
