<?xml version="1.0" encoding="utf-8"?><svg viewBox="0 0 31 41" xmlns="http://www.w3.org/2000/svg" xmlns:xlink="http://www.w3.org/1999/xlink"><style>:root>svg{display:none}:root>svg:target{display:block}</style><svg fill="none" viewBox="0 0 23 41" id="big_arrow_left" xmlns="http://www.w3.org/2000/svg"><path d="M19.907 40.314c.279.279.628.419 1.012.419a1.432 1.432 0 0 0 1.012-2.442L4.138 20.5 21.93 2.71A1.432 1.432 0 0 0 19.907.685L1.07 19.488a1.432 1.432 0 0 0 0 2.024l18.837 18.802Z" fill="#000"/></svg><svg fill="none" viewBox="0 0 15 15" id="close_icon" xmlns="http://www.w3.org/2000/svg"><path d="M14.62 2.046 13.21.636l-5.59 5.59L2.03.636.62 2.046l5.59 5.59-5.59 5.59 1.41 1.41 5.59-5.59 5.59 5.59 1.41-1.41-5.59-5.59 5.59-5.59Z" fill="#D9D9D9"/></svg><svg fill="none" viewBox="0 0 23 30" id="mycart_icon" xmlns="http://www.w3.org/2000/svg"><path d="M7.703 15V8.738A3.738 3.738 0 0 1 11.442 5v0a3.739 3.739 0 0 1 3.739 3.738V15" stroke="#D9D9D9" stroke-width="2" stroke-linecap="round"/><path d="M3.731 15.001c.111-1.777.166-2.666.744-3.208.577-.543 1.468-.543 3.249-.543h7.436c1.781 0 2.672 0 3.25.543.577.542.632 1.43.743 3.208l.568 9.125c.062.996.093 1.493-.203 1.809-.296.315-.795.315-1.793.315H5.16c-.998 0-1.497 0-1.793-.315-.296-.316-.265-.813-.203-1.81l.568-9.124Z" stroke="#D9D9D9" stroke-width="2"/></svg><svg fill="none" viewBox="0 0 31 35" id="mycart_mb" xmlns="http://www.w3.org/2000/svg"><path d="M10.333 17.5V11A5.167 5.167 0 0 1 15.5 5.833v0A5.167 5.167 0 0 1 20.667 11v6.5" stroke="#D9D9D9" stroke-width="2" stroke-linecap="round"/><path d="M4.893 16.83c.13-1.757.195-2.636.77-3.17.576-.535 1.457-.535 3.22-.535h13.235c1.762 0 2.643 0 3.219.535.575.534.64 1.413.77 3.17l.86 11.648c.074 1.005.11 1.508-.186 1.828-.297.319-.8.319-1.81.319H6.029c-1.008 0-1.512 0-1.81-.32-.296-.319-.259-.822-.185-1.827l.86-11.647Z" stroke="#D9D9D9" stroke-width="2"/></svg><svg fill="none" viewBox="0 0 16 15" id="search_icon" xmlns="http://www.w3.org/2000/svg"><path d="M6.495.545c1.478 0 2.895.56 3.94 1.558a5.198 5.198 0 0 1 1.631 3.76 5.19 5.19 0 0 1-1.337 3.462l.232.22h.677l4.286 4.091-1.286 1.228-4.286-4.091v-.647l-.231-.22a5.744 5.744 0 0 1-3.626 1.276 5.709 5.709 0 0 1-3.94-1.558 5.199 5.199 0 0 1-1.631-3.76c0-1.41.587-2.764 1.631-3.76A5.709 5.709 0 0 1 6.495.544Zm0 1.637c-2.143 0-3.857 1.636-3.857 3.682 0 2.045 1.714 3.681 3.857 3.681 2.143 0 3.857-1.636 3.857-3.681 0-2.046-1.714-3.682-3.857-3.682Z" fill="#D9D9D9"/></svg><svg fill="none" viewBox="0 0 25 24" id="search_icon_mb" xmlns="http://www.w3.org/2000/svg"><path d="M9.286 0c2.462 0 4.824.936 6.566 2.601 1.741 1.666 2.72 3.925 2.72 6.281 0 2.2-.843 4.222-2.23 5.78l.387.37h1.128L25 21.862l-2.143 2.05-7.143-6.832V16l-.385-.369a9.561 9.561 0 0 1-6.043 2.132c-2.463 0-4.825-.936-6.566-2.601C.978 13.496 0 11.238 0 8.881s.978-4.615 2.72-6.28C4.46.935 6.823 0 9.286 0Zm0 2.733c-3.572 0-6.429 2.733-6.429 6.149s2.857 6.15 6.429 6.15c3.571 0 6.428-2.734 6.428-6.15 0-3.416-2.857-6.15-6.428-6.15Z" fill="#D9D9D9"/></svg></svg>