<svg width="23" height="30" viewBox="0 0 23 30" fill="none" xmlns="http://www.w3.org/2000/svg">
<path d="M7.70349 15L7.70349 8.73849C7.70349 6.67378 9.37727 5 11.442 5V5C13.5067 5 15.1805 6.67378 15.1805 8.73849L15.1805 15" stroke="#D9D9D9" stroke-width="2" stroke-linecap="round"/>
<path d="M3.73128 15.0013C3.84204 13.2237 3.89742 12.335 4.47475 11.7925C5.05207 11.25 5.94256 11.25 7.72354 11.25H15.1604C16.9414 11.25 17.8319 11.25 18.4092 11.7925C18.9866 12.335 19.042 13.2237 19.1527 15.0012L19.7212 24.1256C19.7833 25.1216 19.8143 25.6195 19.5181 25.9348C19.2219 26.25 18.723 26.25 17.7251 26.25H5.15889C4.16102 26.25 3.66208 26.25 3.36588 25.9348C3.06968 25.6195 3.10071 25.1216 3.16276 24.1256L3.73128 15.0013Z" stroke="#D9D9D9" stroke-width="2"/>
</svg>
