<svg width="31" height="35" viewBox="0 0 31 35" fill="none" xmlns="http://www.w3.org/2000/svg">
<path d="M10.3333 17.5L10.3333 11C10.3333 8.14653 12.6465 5.83334 15.5 5.83334V5.83334C18.3535 5.83334 20.6667 8.14653 20.6667 11L20.6667 17.5" stroke="#D9D9D9" stroke-width="2" stroke-linecap="round"/>
<path d="M4.89316 16.8306C5.02288 15.0731 5.08774 14.1943 5.66332 13.6597C6.2389 13.125 7.12003 13.125 8.88231 13.125H22.1177C23.88 13.125 24.7611 13.125 25.3367 13.6597C25.9123 14.1943 25.9771 15.0731 26.1068 16.8306L26.9665 28.4778C27.0407 29.4834 27.0778 29.9862 26.7811 30.3056C26.4844 30.625 25.9803 30.625 24.9719 30.625H6.02806C5.01973 30.625 4.51557 30.625 4.21886 30.3056C3.92215 29.9862 3.95926 29.4834 4.03349 28.4778L4.89316 16.8306Z" stroke="#D9D9D9" stroke-width="2"/>
</svg>
