<svg width="119" height="39" viewBox="0 0 119 39" fill="none" xmlns="http://www.w3.org/2000/svg">
<line x1="117" y1="38" x2="46" y2="38" stroke="#D9D9D9" stroke-width="2" stroke-linecap="round"/>
<path d="M6.80438 7.25H10.5231L13.2888 23.9062L21.8356 7.25H25.8669L13.9606 30H10.8356L6.80438 7.25ZM4.63251 7.25H8.50751L6.36688 23.7344L5.25751 30H0.695007L4.63251 7.25ZM23.9919 7.25H27.8825L23.945 30H19.3513L20.5231 23.3438L23.9919 7.25ZM32.8513 27.8594L39.695 13.0938H44.5388L34.6325 32.5625C34.3408 33.1771 34.0075 33.7448 33.6325 34.2656C33.2679 34.7969 32.8513 35.2552 32.3825 35.6406C31.9242 36.0365 31.3981 36.3385 30.8044 36.5469C30.221 36.7656 29.5648 36.875 28.8356 36.875C28.471 36.875 28.1169 36.8438 27.7731 36.7812C27.4294 36.7188 27.0856 36.6458 26.7419 36.5625L27.0544 33.2344C27.169 33.2448 27.2835 33.2552 27.3981 33.2656C27.5023 33.276 27.6065 33.2812 27.7106 33.2812C28.2315 33.2917 28.6898 33.2292 29.0856 33.0938C29.4919 32.9688 29.846 32.7604 30.1481 32.4688C30.4502 32.1875 30.721 31.8177 30.9606 31.3594L32.8513 27.8594ZM33.5544 13.0938L35.0231 25.5781L34.82 30.125L31.8825 30.4688L28.9919 13.0938H33.5544Z" fill="#1E2832"/>
<path d="M6.80438 7.25V6.25H5.61161L5.81972 7.42448L6.80438 7.25ZM10.5231 7.25L11.5096 7.0862L11.3708 6.25H10.5231V7.25ZM13.2888 23.9062L12.3023 24.07L12.7977 27.0537L14.1785 24.3628L13.2888 23.9062ZM21.8356 7.25V6.25H21.2248L20.9459 6.79346L21.8356 7.25ZM25.8669 7.25L26.7529 7.71369L27.5189 6.25H25.8669V7.25ZM13.9606 30V31H14.566L14.8466 30.4637L13.9606 30ZM10.8356 30L9.85097 30.1745L9.99725 31H10.8356V30ZM4.63251 7.25V6.25H3.79072L3.64716 7.07946L4.63251 7.25ZM8.50751 7.25L9.49918 7.37878L9.64576 6.25H8.50751V7.25ZM6.36688 23.7344L7.35157 23.9087L7.35559 23.886L7.35856 23.8632L6.36688 23.7344ZM5.25751 30V31H6.096L6.24219 30.1743L5.25751 30ZM0.695007 30L-0.290343 29.8295L-0.492937 31H0.695007V30ZM23.9919 7.25V6.25H23.1845L23.0143 7.0393L23.9919 7.25ZM27.8825 7.25L28.8679 7.42054L29.0705 6.25H27.8825V7.25ZM23.945 30V31H24.7868L24.9304 30.1705L23.945 30ZM19.3513 30L18.3664 29.8266L18.1598 31H19.3513V30ZM20.5231 23.3438L19.5456 23.1331L19.5416 23.1516L19.5383 23.1704L20.5231 23.3438ZM6.80438 8.25H10.5231V6.25H6.80438V8.25ZM9.53664 7.4138L12.3023 24.07L14.2753 23.7425L11.5096 7.0862L9.53664 7.4138ZM14.1785 24.3628L22.7253 7.70654L20.9459 6.79346L12.3991 23.4497L14.1785 24.3628ZM21.8356 8.25H25.8669V6.25H21.8356V8.25ZM24.9809 6.78631L13.0746 29.5363L14.8466 30.4637L26.7529 7.71369L24.9809 6.78631ZM13.9606 29H10.8356V31H13.9606V29ZM11.8203 29.8255L7.78904 7.07552L5.81972 7.42448L9.85097 30.1745L11.8203 29.8255ZM4.63251 8.25H8.50751V6.25H4.63251V8.25ZM7.51583 7.12122L5.37521 23.6056L7.35856 23.8632L9.49918 7.37878L7.51583 7.12122ZM5.3822 23.56L4.27282 29.8257L6.24219 30.1743L7.35157 23.9087L5.3822 23.56ZM5.25751 29H0.695007V31H5.25751V29ZM1.68036 30.1705L5.61786 7.42054L3.64716 7.07946L-0.290343 29.8295L1.68036 30.1705ZM23.9919 8.25H27.8825V6.25H23.9919V8.25ZM26.8972 7.07946L22.9597 29.8295L24.9304 30.1705L28.8679 7.42054L26.8972 7.07946ZM23.945 29H19.3513V31H23.945V29ZM20.3361 30.1734L21.508 23.5171L19.5383 23.1704L18.3664 29.8266L20.3361 30.1734ZM21.5007 23.5544L24.9694 7.4607L23.0143 7.0393L19.5456 23.1331L21.5007 23.5544ZM32.8513 27.8594L33.7311 28.3346L33.7457 28.3077L33.7585 28.2799L32.8513 27.8594ZM39.695 13.0938V12.0938H39.0563L38.7877 12.6732L39.695 13.0938ZM44.5388 13.0938L45.43 13.5472L46.1696 12.0938H44.5388V13.0938ZM34.6325 32.5625L33.7412 32.109L33.735 32.1213L33.7291 32.1338L34.6325 32.5625ZM33.6325 34.2656L32.821 33.6813L32.8144 33.6905L32.808 33.6998L33.6325 34.2656ZM32.3825 35.6406L31.7474 34.8682L31.7381 34.8759L31.7289 34.8838L32.3825 35.6406ZM30.8044 36.5469L30.4733 35.6033L30.4632 35.6068L30.4533 35.6105L30.8044 36.5469ZM26.7419 36.5625L25.7463 36.469L25.6654 37.3305L26.5063 37.5344L26.7419 36.5625ZM27.0544 33.2344L27.1449 32.2385L26.152 32.1482L26.0588 33.1409L27.0544 33.2344ZM27.3981 33.2656L27.4976 32.2705L27.4887 32.2697L27.3981 33.2656ZM27.7106 33.2812L27.7306 32.2814L27.7206 32.2812H27.7106V33.2812ZM29.0856 33.0938L28.7915 32.138L28.7767 32.1425L28.7619 32.1476L29.0856 33.0938ZM30.1481 32.4688L29.4667 31.7369L29.4601 31.743L29.4535 31.7493L30.1481 32.4688ZM30.9606 31.3594L30.0807 30.8841L30.0744 30.8961L30.9606 31.3594ZM33.5544 13.0938L34.5475 12.9769L34.4436 12.0938H33.5544V13.0938ZM35.0231 25.5781L36.0221 25.6228L36.0258 25.5418L36.0163 25.4613L35.0231 25.5781ZM34.82 30.125L34.9362 31.1182L35.7811 31.0194L35.819 30.1696L34.82 30.125ZM31.8825 30.4688L30.8961 30.6329L31.0524 31.5727L31.9987 31.462L31.8825 30.4688ZM28.9919 13.0938V12.0938H27.8118L28.0054 13.2579L28.9919 13.0938ZM33.7585 28.2799L40.6023 13.5143L38.7877 12.6732L31.944 27.4389L33.7585 28.2799ZM39.695 14.0938H44.5388V12.0938H39.695V14.0938ZM43.6475 12.6403L33.7412 32.109L35.5238 33.016L45.43 13.5472L43.6475 12.6403ZM33.7291 32.1338C33.4618 32.6971 33.1587 33.2123 32.821 33.6813L34.444 34.8499C34.8563 34.2773 35.2199 33.6571 35.5359 32.9912L33.7291 32.1338ZM32.808 33.6998C32.4933 34.1584 32.1393 34.546 31.7474 34.8682L33.0176 36.4131C33.5632 35.9644 34.0426 35.4354 34.457 34.8315L32.808 33.6998ZM31.7289 34.8838C31.3691 35.1945 30.9535 35.4348 30.4733 35.6033L31.1355 37.4905C31.8428 37.2423 32.4792 36.8784 33.0361 36.3974L31.7289 34.8838ZM30.4533 35.6105C29.9996 35.7807 29.4649 35.875 28.8356 35.875V37.875C29.6647 37.875 30.4425 37.7506 31.1555 37.4832L30.4533 35.6105ZM28.8356 35.875C28.5284 35.875 28.2342 35.8487 27.952 35.7974L27.5942 37.7651C27.9995 37.8388 28.4137 37.875 28.8356 37.875V35.875ZM27.952 35.7974C27.6275 35.7384 27.3027 35.6695 26.9775 35.5906L26.5063 37.5344C26.8686 37.6222 27.2312 37.6991 27.5942 37.7651L27.952 35.7974ZM27.7375 36.656L28.05 33.3279L26.0588 33.1409L25.7463 36.469L27.7375 36.656ZM26.9638 34.2303C26.9851 34.2322 26.964 34.2303 26.9853 34.2322C27.0066 34.2342 26.9855 34.2322 27.0068 34.2342C27.0281 34.2361 27.007 34.2342 27.0283 34.2361C27.0496 34.2381 27.0285 34.2361 27.0498 34.2381C27.0711 34.24 27.05 34.2381 27.0713 34.24C27.0926 34.242 27.0715 34.2401 27.0928 34.242C27.114 34.2439 27.0929 34.242 27.1142 34.2439C27.1355 34.2459 27.1144 34.244 27.1357 34.2459C27.1964 34.2514 27.2469 34.256 27.3076 34.2615L27.4887 32.2697C27.4664 32.2677 27.425 32.2639 27.4027 32.2619C27.3817 32.26 27.3379 32.256 27.3168 32.2541C27.2562 32.2486 27.2055 32.244 27.1449 32.2385L26.9638 34.2303ZM27.2986 34.2607C27.4357 34.2744 27.5731 34.2812 27.7106 34.2812V32.2812C27.6399 32.2812 27.5689 32.2777 27.4976 32.2706L27.2986 34.2607ZM27.6906 34.2811C28.3008 34.2933 28.8796 34.2211 29.4093 34.0399L28.7619 32.1476C28.5 32.2372 28.1622 32.2901 27.7306 32.2814L27.6906 34.2811ZM29.3797 34.0495C29.9343 33.8789 30.4261 33.5904 30.8427 33.1882L29.4535 31.7493C29.266 31.9305 29.0495 32.0586 28.7915 32.138L29.3797 34.0495ZM30.8296 33.2006C31.2326 32.8254 31.5675 32.3571 31.8469 31.8226L30.0744 30.8961C29.8746 31.2783 29.6678 31.5496 29.4667 31.7369L30.8296 33.2006ZM31.8405 31.8346L33.7311 28.3346L31.9714 27.3841L30.0808 30.8841L31.8405 31.8346ZM32.5612 13.2106L34.03 25.695L36.0163 25.4613L34.5475 12.9769L32.5612 13.2106ZM34.0241 25.5335L33.821 30.0804L35.819 30.1696L36.0221 25.6228L34.0241 25.5335ZM34.7038 29.1318L31.7663 29.4755L31.9987 31.462L34.9362 31.1182L34.7038 29.1318ZM32.8689 30.3046L29.9783 12.9296L28.0054 13.2579L30.8961 30.6329L32.8689 30.3046ZM28.9919 14.0938H33.5544V12.0938H28.9919V14.0938Z" fill="#D9D9D9"/>
<path d="M48.6535 30.0859L52.3019 20.625H53.5207L53.5988 22.3125L49.7551 32H48.4269L48.6535 30.0859ZM49.0051 20.625L49.3332 30.2969L48.9426 32H47.4504L46.7785 20.625H49.0051ZM54.2941 30.0547L57.5519 20.625H59.8644L55.6379 32H54.1613L54.2941 30.0547ZM54.2394 20.625L54.966 30.3438L54.6691 32H53.3332L52.4973 22.1172L52.9894 20.625H54.2394ZM64.3754 30.0938L64.9691 26.3047C64.9952 26.0755 64.9848 25.862 64.9379 25.6641C64.891 25.4661 64.7946 25.3099 64.6488 25.1953C64.5082 25.0755 64.3077 25.0104 64.0473 25C63.8129 24.9948 63.6019 25.0365 63.4144 25.125C63.2321 25.2083 63.0811 25.3307 62.9613 25.4922C62.8415 25.6484 62.7582 25.8359 62.7113 26.0547L60.5082 26.0703C60.5342 25.6016 60.6644 25.1979 60.8988 24.8594C61.1384 24.5156 61.4405 24.2344 61.8051 24.0156C62.1696 23.7969 62.5655 23.6354 62.9926 23.5312C63.4249 23.4271 63.8467 23.3802 64.2582 23.3906C64.8467 23.401 65.3702 23.5234 65.8285 23.7578C66.292 23.9922 66.6462 24.3281 66.891 24.7656C67.141 25.1979 67.2348 25.724 67.1723 26.3438L66.5863 29.9688C66.5394 30.2708 66.503 30.5885 66.4769 30.9219C66.4509 31.25 66.4978 31.5625 66.6176 31.8594L66.6019 32L64.4457 32.0078C64.3467 31.7005 64.2973 31.3854 64.2973 31.0625C64.3025 30.7344 64.3285 30.4115 64.3754 30.0938ZM65.2191 26.8516L65.0082 28.125L63.891 28.1172C63.667 28.1224 63.4431 28.1536 63.2191 28.2109C63.0004 28.263 62.7973 28.3464 62.6098 28.4609C62.4223 28.5703 62.266 28.7135 62.141 28.8906C62.0212 29.0677 61.9457 29.2839 61.9144 29.5391C61.8884 29.7214 61.9066 29.8854 61.9691 30.0312C62.0316 30.1719 62.128 30.2839 62.2582 30.3672C62.3936 30.4505 62.5551 30.4948 62.7426 30.5C63.0082 30.5052 63.2686 30.4557 63.5238 30.3516C63.779 30.2422 64.0004 30.0885 64.1879 29.8906C64.3754 29.6927 64.5056 29.4635 64.5785 29.2031L65.0473 30.1797C64.9223 30.4714 64.7634 30.7396 64.5707 30.9844C64.3832 31.2292 64.167 31.4427 63.9223 31.625C63.6775 31.8021 63.4092 31.9375 63.1176 32.0312C62.8259 32.1302 62.5134 32.1771 62.1801 32.1719C61.7165 32.1615 61.2894 32.0521 60.8988 31.8438C60.5134 31.6302 60.2061 31.3411 59.9769 30.9766C59.753 30.6068 59.6514 30.1771 59.6723 29.6875C59.6931 29.1354 59.8311 28.6771 60.0863 28.3125C60.3415 27.9427 60.6696 27.651 61.0707 27.4375C61.4769 27.224 61.917 27.0729 62.391 26.9844C62.8702 26.8906 63.3441 26.8438 63.8129 26.8438L65.2191 26.8516ZM72.0269 25.5078L70.9019 32H68.7066L70.1754 23.5469H72.2379L72.0269 25.5078ZM74.7848 23.4766L74.5113 25.5781C74.3863 25.5573 74.2587 25.5391 74.1285 25.5234C74.0035 25.5078 73.8759 25.4974 73.7457 25.4922C73.4436 25.487 73.1702 25.526 72.9254 25.6094C72.6806 25.6927 72.467 25.8151 72.2848 25.9766C72.1077 26.1328 71.9566 26.3255 71.8316 26.5547C71.7118 26.7839 71.6207 27.0417 71.5582 27.3281L71.1285 27.1875C71.1806 26.7865 71.2665 26.3646 71.3863 25.9219C71.5113 25.474 71.6832 25.0573 71.9019 24.6719C72.1259 24.2812 72.4098 23.9661 72.7535 23.7266C73.1025 23.4818 73.5269 23.362 74.0269 23.3672C74.1571 23.3672 74.2821 23.3776 74.4019 23.3984C74.5269 23.4193 74.6545 23.4453 74.7848 23.4766ZM80.2254 30.0312L81.9598 20H84.1707L82.0926 32H80.116L80.2254 30.0312ZM75.4129 27.9375L75.4285 27.7656C75.4962 27.25 75.616 26.7292 75.7879 26.2031C75.965 25.6771 76.2045 25.1979 76.5066 24.7656C76.8139 24.3333 77.1915 23.9896 77.6394 23.7344C78.0874 23.4792 78.6186 23.362 79.2332 23.3828C79.7592 23.4036 80.1941 23.5521 80.5379 23.8281C80.8816 24.099 81.1473 24.4505 81.3348 24.8828C81.5275 25.3099 81.6577 25.7656 81.7254 26.25C81.7983 26.7292 81.8269 27.1849 81.8113 27.6172L81.7723 27.9922C81.6889 28.4557 81.5483 28.9349 81.3504 29.4297C81.1577 29.9193 80.9051 30.375 80.5926 30.7969C80.2853 31.2135 79.9181 31.5495 79.491 31.8047C79.0691 32.0599 78.5874 32.1797 78.0457 32.1641C77.478 32.1484 77.0118 32.0104 76.6473 31.75C76.2879 31.4844 76.0092 31.1432 75.8113 30.7266C75.6134 30.3099 75.4858 29.8568 75.4285 29.3672C75.3712 28.8776 75.366 28.401 75.4129 27.9375ZM77.6394 27.7578L77.6238 27.9219C77.603 28.1458 77.59 28.3984 77.5848 28.6797C77.5848 28.9557 77.6134 29.224 77.6707 29.4844C77.7332 29.7396 77.8452 29.9531 78.0066 30.125C78.1733 30.2917 78.4129 30.3828 78.7254 30.3984C79.1212 30.4141 79.4624 30.3229 79.7488 30.125C80.0353 29.9219 80.2644 29.6615 80.4363 29.3438C80.6134 29.026 80.7306 28.6927 80.7879 28.3438L80.9363 27.3047C80.9624 27.0651 80.9624 26.8229 80.9363 26.5781C80.9103 26.3333 80.8504 26.1042 80.7566 25.8906C80.6681 25.6771 80.5327 25.5026 80.3504 25.3672C80.1733 25.2318 79.9415 25.1615 79.6551 25.1562C79.3061 25.1406 79.0092 25.2161 78.7644 25.3828C78.5249 25.5443 78.3295 25.7578 78.1785 26.0234C78.0275 26.2839 77.9077 26.5677 77.8191 26.875C77.7358 27.1823 77.6759 27.4766 77.6394 27.7578ZM87.8926 25.5078L86.7676 32H84.5723L86.041 23.5469H88.1035L87.8926 25.5078ZM90.6504 23.4766L90.3769 25.5781C90.2519 25.5573 90.1243 25.5391 89.9941 25.5234C89.8691 25.5078 89.7415 25.4974 89.6113 25.4922C89.3092 25.487 89.0358 25.526 88.791 25.6094C88.5462 25.6927 88.3327 25.8151 88.1504 25.9766C87.9733 26.1328 87.8223 26.3255 87.6973 26.5547C87.5775 26.7839 87.4863 27.0417 87.4238 27.3281L86.9941 27.1875C87.0462 26.7865 87.1322 26.3646 87.2519 25.9219C87.3769 25.474 87.5488 25.0573 87.7676 24.6719C87.9915 24.2812 88.2754 23.9661 88.6191 23.7266C88.9681 23.4818 89.3926 23.362 89.8926 23.3672C90.0228 23.3672 90.1478 23.3776 90.2676 23.3984C90.3926 23.4193 90.5202 23.4453 90.6504 23.4766ZM91.2082 27.9062L91.2316 27.7422C91.2941 27.1432 91.4374 26.5807 91.6613 26.0547C91.8905 25.5234 92.1926 25.0573 92.5676 24.6562C92.9478 24.25 93.3931 23.9349 93.9035 23.7109C94.4191 23.4818 94.9973 23.375 95.6379 23.3906C96.2473 23.401 96.7733 23.5234 97.216 23.7578C97.6587 23.9922 98.0207 24.3073 98.3019 24.7031C98.5884 25.099 98.7889 25.5521 98.9035 26.0625C99.0233 26.5729 99.0571 27.112 99.0051 27.6797L98.9894 27.8516C98.9217 28.4453 98.7707 29.0052 98.5363 29.5312C98.3071 30.0521 98.0025 30.513 97.6223 30.9141C97.2473 31.3099 96.8019 31.6198 96.2863 31.8438C95.7707 32.0677 95.1978 32.1719 94.5676 32.1562C93.9686 32.1458 93.4452 32.026 92.9973 31.7969C92.5493 31.5625 92.1848 31.25 91.9035 30.8594C91.6223 30.4635 91.4243 30.013 91.3098 29.5078C91.1952 29.0026 91.1613 28.4688 91.2082 27.9062ZM93.4269 27.7422L93.4113 27.9141C93.3853 28.1641 93.3775 28.4323 93.3879 28.7188C93.3983 29 93.4426 29.2682 93.5207 29.5234C93.604 29.7786 93.7394 29.987 93.9269 30.1484C94.1144 30.3099 94.3723 30.3958 94.7004 30.4062C95.0493 30.4167 95.3488 30.3464 95.5988 30.1953C95.8488 30.0443 96.0545 29.8411 96.216 29.5859C96.3775 29.3255 96.5051 29.0443 96.5988 28.7422C96.6926 28.4349 96.7551 28.1354 96.7863 27.8438L96.8019 27.6797C96.8228 27.4297 96.828 27.1615 96.8176 26.875C96.8124 26.5833 96.7681 26.3099 96.6848 26.0547C96.6014 25.7943 96.466 25.5807 96.2785 25.4141C96.091 25.2474 95.8332 25.1589 95.5051 25.1484C95.1561 25.1328 94.8566 25.2057 94.6066 25.3672C94.3566 25.5234 94.1509 25.7318 93.9894 25.9922C93.828 26.2526 93.7004 26.5365 93.6066 26.8438C93.5181 27.151 93.4582 27.4505 93.4269 27.7422ZM102.469 20H104.672L102.899 30.1875L102.375 32H100.383L102.469 20ZM108.516 27.6406L108.5 27.8125C108.433 28.3333 108.313 28.8542 108.141 29.375C107.974 29.8958 107.74 30.3698 107.438 30.7969C107.141 31.2188 106.769 31.5573 106.321 31.8125C105.878 32.0625 105.352 32.1797 104.743 32.1641C104.206 32.1484 103.763 32.0078 103.414 31.7422C103.065 31.4714 102.795 31.1276 102.602 30.7109C102.409 30.2891 102.279 29.8385 102.211 29.3594C102.144 28.875 102.118 28.4115 102.133 27.9688L102.172 27.6016C102.256 27.1328 102.394 26.6484 102.586 26.1484C102.779 25.6484 103.026 25.1875 103.329 24.7656C103.636 24.3438 104 24.0052 104.422 23.75C104.849 23.4896 105.339 23.3672 105.891 23.3828C106.474 23.3932 106.948 23.5286 107.313 23.7891C107.683 24.0495 107.964 24.3906 108.157 24.8125C108.349 25.2292 108.469 25.6849 108.516 26.1797C108.568 26.6745 108.568 27.1615 108.516 27.6406ZM106.305 27.8047L106.313 27.6328C106.339 27.3984 106.355 27.1406 106.36 26.8594C106.37 26.5781 106.347 26.3099 106.289 26.0547C106.232 25.7995 106.12 25.5885 105.954 25.4219C105.787 25.25 105.542 25.1589 105.219 25.1484C104.901 25.1328 104.623 25.1823 104.383 25.2969C104.149 25.4115 103.948 25.5703 103.782 25.7734C103.615 25.9766 103.48 26.2083 103.375 26.4688C103.271 26.724 103.196 26.9896 103.149 27.2656L103 28.2969C102.98 28.625 102.998 28.9479 103.055 29.2656C103.112 29.5833 103.24 29.849 103.438 30.0625C103.641 30.2708 103.938 30.3802 104.329 30.3906C104.688 30.4062 104.987 30.3359 105.227 30.1797C105.467 30.0182 105.659 29.8073 105.805 29.5469C105.951 29.2865 106.06 29.0026 106.133 28.6953C106.211 28.3828 106.269 28.0859 106.305 27.8047ZM113.894 32.1562C113.316 32.1458 112.795 32.0365 112.332 31.8281C111.868 31.6146 111.48 31.3229 111.168 30.9531C110.86 30.5833 110.634 30.1536 110.488 29.6641C110.342 29.1745 110.29 28.6484 110.332 28.0859L110.363 27.7656C110.425 27.1771 110.569 26.6172 110.793 26.0859C111.017 25.5547 111.316 25.0859 111.691 24.6797C112.066 24.2682 112.509 23.9479 113.019 23.7188C113.535 23.4844 114.108 23.375 114.738 23.3906C115.326 23.401 115.829 23.5208 116.246 23.75C116.662 23.9792 116.998 24.2865 117.254 24.6719C117.509 25.0573 117.683 25.4974 117.777 25.9922C117.871 26.4818 117.889 26.9948 117.832 27.5312L117.707 28.4688H111.175L111.418 26.9688L115.73 26.9766L115.769 26.7812C115.811 26.4948 115.798 26.2292 115.73 25.9844C115.662 25.7344 115.535 25.5339 115.347 25.3828C115.16 25.2318 114.91 25.151 114.597 25.1406C114.238 25.1302 113.936 25.2057 113.691 25.3672C113.446 25.5286 113.246 25.7422 113.089 26.0078C112.933 26.2734 112.813 26.5625 112.73 26.875C112.647 27.1823 112.587 27.4792 112.55 27.7656L112.519 28.0781C112.493 28.3542 112.501 28.6302 112.543 28.9062C112.584 29.1771 112.665 29.4219 112.785 29.6406C112.91 29.8594 113.079 30.0365 113.293 30.1719C113.511 30.3073 113.785 30.3802 114.113 30.3906C114.53 30.401 114.912 30.3203 115.261 30.1484C115.615 29.9714 115.933 29.737 116.214 29.4453L117.199 30.6328C116.964 30.987 116.665 31.2786 116.3 31.5078C115.941 31.7318 115.553 31.8958 115.136 32C114.72 32.1094 114.306 32.1615 113.894 32.1562Z" fill="#1E2832"/>
<path d="M48.6535 30.0859L47.7205 29.7261L47.6752 29.8435L47.6604 29.9684L48.6535 30.0859ZM52.3019 20.625V19.625H51.6158L51.3689 20.2652L52.3019 20.625ZM53.5207 20.625L54.5196 20.5788L54.4755 19.625H53.5207V20.625ZM53.5988 22.3125L54.5283 22.6813L54.6077 22.4812L54.5977 22.2663L53.5988 22.3125ZM49.7551 32V33H50.4341L50.6846 32.3688L49.7551 32ZM48.4269 32L47.4339 31.8825L47.3016 33H48.4269V32ZM49.0051 20.625L50.0045 20.5911L49.9717 19.625H49.0051V20.625ZM49.3332 30.2969L50.3079 30.5204L50.337 30.3933L50.3326 30.263L49.3332 30.2969ZM48.9426 32V33H49.7392L49.9173 32.2236L48.9426 32ZM47.4504 32L46.4521 32.059L46.5077 33H47.4504V32ZM46.7785 20.625V19.625H45.7177L45.7802 20.684L46.7785 20.625ZM54.2941 30.0547L53.3489 29.7281L53.3055 29.8539L53.2965 29.9866L54.2941 30.0547ZM57.5519 20.625V19.625H56.8394L56.6068 20.2985L57.5519 20.625ZM59.8644 20.625L60.8018 20.9733L61.3028 19.625H59.8644V20.625ZM55.6379 32V33H56.3331L56.5753 32.3483L55.6379 32ZM54.1613 32L53.1636 31.9319L53.0907 33H54.1613V32ZM54.2394 20.625L55.2367 20.5504L55.1675 19.625H54.2394V20.625ZM54.966 30.3438L55.9503 30.5202L55.9727 30.3955L55.9632 30.2692L54.966 30.3438ZM54.6691 32V33H55.5058L55.6534 32.1764L54.6691 32ZM53.3332 32L52.3367 32.0843L52.4142 33H53.3332V32ZM52.4973 22.1172L51.5476 21.8039L51.4836 21.9979L51.5008 22.2015L52.4973 22.1172ZM52.9894 20.625V19.625H52.2663L52.0398 20.3118L52.9894 20.625ZM49.5865 30.4457L53.235 20.9848L51.3689 20.2652L47.7205 29.7261L49.5865 30.4457ZM52.3019 21.625H53.5207V19.625H52.3019V21.625ZM52.5218 20.6712L52.5999 22.3587L54.5977 22.2663L54.5196 20.5788L52.5218 20.6712ZM52.6693 21.9437L48.8256 31.6312L50.6846 32.3688L54.5283 22.6813L52.6693 21.9437ZM49.7551 31H48.4269V33H49.7551V31ZM49.42 32.1175L49.6466 30.2035L47.6604 29.9684L47.4339 31.8825L49.42 32.1175ZM48.0056 20.6589L48.3338 30.3308L50.3326 30.263L50.0045 20.5911L48.0056 20.6589ZM48.3585 30.0733L47.9679 31.7764L49.9173 32.2236L50.3079 30.5204L48.3585 30.0733ZM48.9426 31H47.4504V33H48.9426V31ZM48.4486 31.941L47.7768 20.566L45.7802 20.684L46.4521 32.059L48.4486 31.941ZM46.7785 21.625H49.0051V19.625H46.7785V21.625ZM55.2393 30.3812L58.4971 20.9515L56.6068 20.2985L53.3489 29.7281L55.2393 30.3812ZM57.5519 21.625H59.8644V19.625H57.5519V21.625ZM58.9271 20.2767L54.7005 31.6517L56.5753 32.3483L60.8018 20.9733L58.9271 20.2767ZM55.6379 31H54.1613V33H55.6379V31ZM55.159 32.0681L55.2918 30.1228L53.2965 29.9866L53.1636 31.9319L55.159 32.0681ZM53.2422 20.6996L53.9688 30.4183L55.9632 30.2692L55.2367 20.5504L53.2422 20.6996ZM53.9817 30.1673L53.6848 31.8236L55.6534 32.1764L55.9503 30.5202L53.9817 30.1673ZM54.6691 31H53.3332V33H54.6691V31ZM54.3296 31.9157L53.4937 22.0329L51.5008 22.2015L52.3367 32.0843L54.3296 31.9157ZM53.4469 22.4304L53.9391 20.9382L52.0398 20.3118L51.5476 21.8039L53.4469 22.4304ZM52.9894 21.625H54.2394V19.625H52.9894V21.625ZM64.3754 30.0938L63.3874 29.9389L63.3861 29.9478L64.3754 30.0938ZM64.9691 26.3047L65.9571 26.4595L65.9603 26.4386L65.9627 26.4176L64.9691 26.3047ZM64.6488 25.1953L64.0003 25.9566L64.0154 25.9694L64.031 25.9816L64.6488 25.1953ZM64.0473 25L64.0872 24.0008L64.0783 24.0004L64.0695 24.0002L64.0473 25ZM63.4144 25.125L63.8302 26.0345L63.8414 26.0292L63.4144 25.125ZM62.9613 25.4922L63.7549 26.1006L63.7597 26.0944L63.7644 26.088L62.9613 25.4922ZM62.7113 26.0547L62.7184 27.0547L63.521 27.049L63.6891 26.2642L62.7113 26.0547ZM60.5082 26.0703L59.5097 26.0148L59.4507 27.0778L60.5153 27.0703L60.5082 26.0703ZM60.8988 24.8594L60.0784 24.2876L60.0766 24.2902L60.8988 24.8594ZM62.9926 23.5312L62.7583 22.5591L62.7556 22.5597L62.9926 23.5312ZM64.2582 23.3906L64.2329 24.3903L64.2405 24.3905L64.2582 23.3906ZM65.8285 23.7578L65.3732 24.6482L65.3773 24.6502L65.8285 23.7578ZM66.891 24.7656L66.0183 25.2539L66.0218 25.2601L66.0253 25.2663L66.891 24.7656ZM67.1723 26.3438L68.1594 26.5033L68.1642 26.4738L68.1672 26.4441L67.1723 26.3438ZM66.5863 29.9688L65.5991 29.8092L65.5981 29.8154L66.5863 29.9688ZM66.4769 30.9219L67.4738 31.001L67.4739 30.9998L66.4769 30.9219ZM66.6176 31.8594L67.6114 31.9698L67.6393 31.7191L67.5449 31.4852L66.6176 31.8594ZM66.6019 32L66.6056 33L67.4973 32.9968L67.5958 32.1104L66.6019 32ZM64.4457 32.0078L63.4938 32.3143L63.718 33.0105L64.4493 33.0078L64.4457 32.0078ZM64.2973 31.0625L63.2974 31.0466L63.2973 31.0546V31.0625H64.2973ZM65.2191 26.8516L66.2057 27.015L66.3973 25.8581L65.2247 25.8516L65.2191 26.8516ZM65.0082 28.125L65.0012 29.125L65.8552 29.1309L65.9947 28.2884L65.0082 28.125ZM63.891 28.1172L63.898 27.1172L63.8829 27.1171L63.8678 27.1175L63.891 28.1172ZM63.2191 28.2109L63.4507 29.1837L63.4589 29.1818L63.467 29.1797L63.2191 28.2109ZM62.6098 28.4609L63.1136 29.3247L63.1225 29.3196L63.1312 29.3142L62.6098 28.4609ZM62.141 28.8906L61.324 28.3139L61.3183 28.3221L61.3127 28.3303L62.141 28.8906ZM61.9144 29.5391L62.9044 29.6805L62.9058 29.6706L62.907 29.6606L61.9144 29.5391ZM61.9691 30.0312L61.0499 30.4252L61.0553 30.4374L61.9691 30.0312ZM62.2582 30.3672L61.7191 31.2095L61.7266 31.2142L61.7341 31.2188L62.2582 30.3672ZM62.7426 30.5L62.7148 31.4996L62.723 31.4998L62.7426 30.5ZM63.5238 30.3516L63.9017 31.2774L63.9098 31.2741L63.9177 31.2707L63.5238 30.3516ZM64.1879 29.8906L63.4619 29.2029L64.1879 29.8906ZM64.5785 29.2031L65.48 28.7704L64.3313 26.3772L63.6155 28.9335L64.5785 29.2031ZM65.0473 30.1797L65.9664 30.5736L66.1453 30.1563L65.9488 29.747L65.0473 30.1797ZM64.5707 30.9844L63.7849 30.3658L63.7768 30.3763L64.5707 30.9844ZM63.9223 31.625L64.5084 32.4353L64.5195 32.427L63.9223 31.625ZM63.1176 32.0312L62.8116 31.0792L62.8039 31.0817L62.7963 31.0843L63.1176 32.0312ZM62.1801 32.1719L62.1576 33.1716L62.1644 33.1718L62.1801 32.1719ZM60.8988 31.8438L60.4142 32.7185L60.4212 32.7223L60.4282 32.7261L60.8988 31.8438ZM59.9769 30.9766L59.1216 31.4946L59.1259 31.5017L59.1303 31.5087L59.9769 30.9766ZM59.6723 29.6875L60.6714 29.73L60.6715 29.7252L59.6723 29.6875ZM60.0863 28.3125L60.9056 28.886L60.9093 28.8805L60.0863 28.3125ZM61.0707 27.4375L60.6054 26.5523L60.6007 26.5548L61.0707 27.4375ZM62.391 26.9844L62.5746 27.9674L62.583 27.9658L62.391 26.9844ZM63.8129 26.8438L63.8184 25.8438H63.8129V26.8438ZM65.3633 30.2486L65.9571 26.4595L63.9812 26.1499L63.3874 29.9389L65.3633 30.2486ZM65.9627 26.4176C66.0001 26.0888 65.9878 25.7579 65.911 25.4336L63.9648 25.8945C63.9817 25.966 63.9902 26.0622 63.9755 26.1918L65.9627 26.4176ZM65.911 25.4336C65.8173 25.0382 65.6078 24.6771 65.2666 24.409L64.031 25.9816C64.0123 25.967 63.9935 25.9464 63.9793 25.9233C63.9656 25.9012 63.9634 25.8885 63.9648 25.8945L65.911 25.4336ZM65.2973 24.4341C64.9284 24.1199 64.4814 24.0166 64.0872 24.0008L64.0073 25.9992C64.0362 26.0004 64.0566 26.0028 64.0696 26.0049C64.0826 26.007 64.0869 26.0087 64.0841 26.0078C64.0813 26.0068 64.0709 26.0032 64.0556 25.9949C64.0401 25.9865 64.0208 25.974 64.0003 25.9566L65.2973 24.4341ZM64.0695 24.0002C63.7004 23.992 63.3326 24.0578 62.9874 24.2208L63.8414 26.0292C63.8713 26.0152 63.9254 25.9975 64.025 25.9998L64.0695 24.0002ZM62.9987 24.2155C62.6624 24.3693 62.3783 24.5998 62.1582 24.8963L63.7644 26.088C63.784 26.0617 63.8019 26.0474 63.8302 26.0345L62.9987 24.2155ZM62.1677 24.8838C61.9461 25.1728 61.8072 25.5012 61.7335 25.8452L63.6891 26.2642C63.7092 26.1706 63.7369 26.1241 63.7549 26.1006L62.1677 24.8838ZM62.7042 25.0547L60.5011 25.0703L60.5153 27.0703L62.7184 27.0547L62.7042 25.0547ZM61.5067 26.1258C61.5239 25.8149 61.6058 25.5951 61.721 25.4286L60.0766 24.2902C59.7231 24.8008 59.5445 25.3883 59.5097 26.0148L61.5067 26.1258ZM61.7192 25.4312C61.8769 25.2049 62.0741 25.0204 62.3196 24.8731L61.2906 23.1581C60.8068 23.4484 60.3999 23.8263 60.0784 24.2876L61.7192 25.4312ZM62.3196 24.8731C62.595 24.7079 62.8968 24.5839 63.2295 24.5028L62.7556 22.5597C62.2342 22.6869 61.7443 22.8859 61.2906 23.1581L62.3196 24.8731ZM63.2268 24.5034C63.5809 24.4181 63.9155 24.3823 64.2329 24.3903L64.2835 22.3909C63.778 22.3781 63.2688 22.4361 62.7583 22.5591L63.2268 24.5034ZM64.2405 24.3905C64.6986 24.3986 65.0687 24.4925 65.3732 24.6482L66.2838 22.8675C65.6716 22.5544 64.9948 22.4035 64.2759 22.3908L64.2405 24.3905ZM65.3773 24.6502C65.6701 24.7983 65.8743 24.9966 66.0183 25.2539L67.7637 24.2773C67.4181 23.6597 66.914 23.1861 66.2797 22.8654L65.3773 24.6502ZM66.0253 25.2663C66.1467 25.476 66.224 25.7803 66.1773 26.2434L68.1672 26.4441C68.2455 25.6676 68.1353 24.9198 67.7567 24.265L66.0253 25.2663ZM66.1851 26.1842L65.5991 29.8092L67.5735 30.1283L68.1594 26.5033L66.1851 26.1842ZM65.5981 29.8154C65.547 30.1447 65.5078 30.4877 65.48 30.844L67.4739 30.9998C67.4982 30.6894 67.5318 30.3969 67.5745 30.1221L65.5981 29.8154ZM65.4801 30.8428C65.4421 31.3208 65.5108 31.7889 65.6902 32.2336L67.5449 31.4852C67.4848 31.3361 67.4597 31.1792 67.4738 31.001L65.4801 30.8428ZM65.6237 31.7489L65.6081 31.8896L67.5958 32.1104L67.6114 31.9698L65.6237 31.7489ZM66.5983 31L64.4421 31.0078L64.4493 33.0078L66.6056 33L66.5983 31ZM65.3976 31.7013C65.3305 31.4931 65.2973 31.2814 65.2973 31.0625H63.2973C63.2973 31.4894 63.363 31.908 63.4938 32.3143L65.3976 31.7013ZM65.2971 31.0784C65.3017 30.7928 65.3243 30.5134 65.3647 30.2397L63.3861 29.9478C63.3327 30.3095 63.3033 30.6759 63.2974 31.0466L65.2971 31.0784ZM64.2326 26.6881L64.0216 27.9616L65.9947 28.2884L66.2057 27.015L64.2326 26.6881ZM65.0152 27.125L63.898 27.1172L63.884 29.1172L65.0012 29.125L65.0152 27.125ZM63.8678 27.1175C63.5656 27.1245 63.2664 27.1667 62.9713 27.2421L63.467 29.1797C63.6198 29.1406 63.7685 29.1203 63.9143 29.1169L63.8678 27.1175ZM62.9875 27.2381C62.6689 27.314 62.3676 27.437 62.0883 27.6077L63.1312 29.3142C63.2269 29.2557 63.3319 29.212 63.4507 29.1837L62.9875 27.2381ZM62.1059 27.5972C61.7948 27.7786 61.5318 28.0197 61.324 28.3139L62.958 29.4673C63.0002 29.4074 63.0497 29.362 63.1136 29.3247L62.1059 27.5972ZM61.3127 28.3303C61.0879 28.6626 60.9685 29.0367 60.9219 29.4175L62.907 29.6606C62.9229 29.531 62.9545 29.4728 62.9693 29.4509L61.3127 28.3303ZM60.9245 29.3976C60.8767 29.7319 60.9043 30.0852 61.05 30.4252L62.8883 29.6373C62.8973 29.6583 62.9012 29.6767 62.9025 29.6884C62.9037 29.6992 62.9019 29.6977 62.9044 29.6805L60.9245 29.3976ZM61.0553 30.4374C61.1977 30.7578 61.4248 31.0211 61.7191 31.2095L62.7972 29.5249C62.8102 29.5332 62.8282 29.5474 62.8463 29.5685C62.8644 29.5895 62.8762 29.61 62.8829 29.6251L61.0553 30.4374ZM61.7341 31.2188C62.044 31.4096 62.3835 31.4904 62.7148 31.4996L62.7703 29.5004C62.7472 29.4997 62.7402 29.4971 62.7453 29.4985C62.7478 29.4992 62.7528 29.5007 62.7595 29.5036C62.7663 29.5066 62.7741 29.5105 62.7823 29.5155L61.7341 31.2188ZM62.723 31.4998C63.1299 31.5078 63.5253 31.4311 63.9017 31.2774L63.1459 29.4257C63.012 29.4804 62.8865 29.5026 62.7622 29.5002L62.723 31.4998ZM63.9177 31.2707C64.2959 31.1087 64.6308 30.8771 64.9138 30.5784L63.4619 29.2029C63.3699 29.3 63.2622 29.3757 63.1299 29.4324L63.9177 31.2707ZM64.9138 30.5784C65.2122 30.2634 65.4243 29.8911 65.5415 29.4728L63.6155 28.9335C63.5868 29.036 63.5386 29.122 63.4619 29.2029L64.9138 30.5784ZM63.677 29.6359L64.1457 30.6124L65.9488 29.747L65.48 28.7704L63.677 29.6359ZM64.1281 29.7858C64.0369 29.9985 63.9226 30.191 63.785 30.3658L65.3564 31.6029C65.6042 31.2881 65.8076 30.9442 65.9664 30.5736L64.1281 29.7858ZM63.7768 30.3763C63.645 30.5484 63.4948 30.6965 63.325 30.823L64.5195 32.427C64.8393 32.1889 65.1214 31.9099 65.3646 31.5925L63.7768 30.3763ZM63.3361 30.8148C63.1779 30.9293 63.0044 31.0172 62.8116 31.0792L63.4236 32.9833C63.8141 32.8578 64.1771 32.6749 64.5084 32.4352L63.3361 30.8148ZM62.7963 31.0843C62.6217 31.1435 62.424 31.1756 62.1957 31.172L62.1644 33.1718C62.6028 33.1786 63.0301 33.1169 63.4389 32.9782L62.7963 31.0843ZM62.2025 31.1721C61.8879 31.1651 61.6153 31.0926 61.3694 30.9614L60.4282 32.7261C60.9636 33.0116 61.5452 33.1579 62.1576 33.1716L62.2025 31.1721ZM61.3835 30.969C61.1421 30.8353 60.9608 30.6627 60.8236 30.4444L59.1303 31.5087C59.4514 32.0196 59.8847 32.4251 60.4142 32.7185L61.3835 30.969ZM60.8323 30.4585C60.7237 30.2792 60.6577 30.0498 60.6713 29.73L58.6732 29.645C58.6451 30.3044 58.7823 30.9344 59.1216 31.4946L60.8323 30.4585ZM60.6715 29.7252C60.6869 29.3189 60.7845 29.0588 60.9055 28.886L59.2671 27.739C58.8777 28.2953 58.6993 28.952 58.673 29.6498L60.6715 29.7252ZM60.9093 28.8805C61.0727 28.6438 61.2791 28.4594 61.5407 28.3202L60.6007 26.5548C60.0602 26.8426 59.6104 27.2416 59.2633 27.7445L60.9093 28.8805ZM61.536 28.3227C61.8494 28.1579 62.1939 28.0385 62.5746 27.9674L62.2074 26.0014C61.6402 26.1073 61.1045 26.29 60.6054 26.5523L61.536 28.3227ZM62.583 27.9658C63.0015 27.8839 63.4112 27.8438 63.8129 27.8438V25.8438C63.2771 25.8438 62.7388 25.8974 62.199 26.003L62.583 27.9658ZM63.8073 27.8437L65.2136 27.8515L65.2247 25.8516L63.8184 25.8438L63.8073 27.8437ZM72.0269 25.5078L73.0123 25.6786L73.0178 25.6468L73.0212 25.6148L72.0269 25.5078ZM70.9019 32V33H71.7436L71.8873 32.1707L70.9019 32ZM68.7066 32L67.7214 31.8288L67.5179 33H68.7066V32ZM70.1754 23.5469V22.5469H69.3341L69.1901 23.3757L70.1754 23.5469ZM72.2379 23.5469L73.2321 23.6538L73.3512 22.5469H72.2379V23.5469ZM74.7848 23.4766L75.7764 23.6056L75.8924 22.714L75.0181 22.5042L74.7848 23.4766ZM74.5113 25.5781L74.3469 26.5645L75.3692 26.7349L75.503 25.7071L74.5113 25.5781ZM74.1285 25.5234L74.0045 26.5157L74.0094 26.5163L74.1285 25.5234ZM73.7457 25.4922L73.7857 24.493L73.7743 24.4925L73.7629 24.4923L73.7457 25.4922ZM72.2848 25.9766L72.9464 26.7264L72.9478 26.7252L72.2848 25.9766ZM71.8316 26.5547L70.9537 26.0758L70.9495 26.0836L70.9454 26.0914L71.8316 26.5547ZM71.5582 27.3281L71.2472 28.2785L72.2992 28.6228L72.5352 27.5413L71.5582 27.3281ZM71.1285 27.1875L70.1368 27.0587L70.0301 27.8802L70.8175 28.1379L71.1285 27.1875ZM71.3863 25.9219L70.4231 25.6531L70.421 25.6607L71.3863 25.9219ZM71.9019 24.6719L71.0344 24.1745L71.0323 24.1783L71.9019 24.6719ZM72.7535 23.7266L73.3253 24.547L73.3278 24.5452L72.7535 23.7266ZM74.0269 23.3672L74.0165 24.3672H74.0269V23.3672ZM74.4019 23.3984L74.2306 24.3837L74.2375 24.3848L74.4019 23.3984ZM71.0416 25.3371L69.9166 31.8293L71.8873 32.1707L73.0123 25.6786L71.0416 25.3371ZM70.9019 31H68.7066V33H70.9019V31ZM69.6919 32.1712L71.1606 23.7181L69.1901 23.3757L67.7214 31.8288L69.6919 32.1712ZM70.1754 24.5469H72.2379V22.5469H70.1754V24.5469ZM71.2436 23.4399L71.0327 25.4009L73.0212 25.6148L73.2321 23.6538L71.2436 23.4399ZM73.7931 23.3475L73.5197 25.4491L75.503 25.7071L75.7764 23.6056L73.7931 23.3475ZM74.6757 24.5917C74.5352 24.5683 74.3925 24.5479 74.2476 24.5306L74.0094 26.5163C74.125 26.5302 74.2375 26.5463 74.3469 26.5645L74.6757 24.5917ZM74.2525 24.5312C74.0987 24.5119 73.943 24.4993 73.7857 24.493L73.7057 26.4914C73.8088 26.4955 73.9083 26.5037 74.0045 26.5157L74.2525 24.5312ZM73.7629 24.4923C73.3645 24.4855 72.9738 24.5365 72.6031 24.6627L73.2476 26.556C73.3665 26.5156 73.5227 26.4885 73.7285 26.492L73.7629 24.4923ZM72.6031 24.6627C72.2406 24.7861 71.9094 24.9732 71.6217 25.228L72.9478 26.7252C73.0247 26.657 73.1206 26.5993 73.2476 26.556L72.6031 24.6627ZM71.6231 25.2267C71.35 25.4677 71.1286 25.7552 70.9537 26.0758L72.7095 27.0335C72.7846 26.8959 72.8653 26.7979 72.9464 26.7264L71.6231 25.2267ZM70.9454 26.0914C70.7793 26.4093 70.6602 26.7529 70.5812 27.115L72.5352 27.5413C72.5812 27.3305 72.6444 27.1584 72.7179 27.0179L70.9454 26.0914ZM71.8692 26.3777L71.4395 26.2371L70.8175 28.1379L71.2472 28.2785L71.8692 26.3777ZM72.1202 27.3163C72.1657 26.9654 72.242 26.5879 72.3516 26.1831L70.421 25.6607C70.291 26.1412 70.1954 26.6075 70.1368 27.0587L72.1202 27.3163ZM72.3495 26.1907C72.4537 25.8174 72.595 25.4766 72.7716 25.1655L71.0323 24.1783C70.7714 24.6379 70.5689 25.1306 70.4231 25.6531L72.3495 26.1907ZM72.7695 25.1693C72.9255 24.8971 73.1117 24.6959 73.3253 24.547L72.1817 22.9062C71.7078 23.2364 71.3263 23.6654 71.0344 24.1745L72.7695 25.1693ZM73.3278 24.5452C73.4774 24.4403 73.6883 24.3637 74.0165 24.3671L74.0374 22.3672C73.3656 22.3602 72.7275 22.5233 72.1792 22.9079L73.3278 24.5452ZM74.0269 24.3672C74.1037 24.3672 74.1712 24.3733 74.2306 24.3836L74.5733 22.4132C74.3931 22.3819 74.2106 22.3672 74.0269 22.3672V24.3672ZM74.2375 24.3848C74.3381 24.4016 74.4427 24.4229 74.5514 24.4489L75.0181 22.5042C74.8664 22.4678 74.7157 22.4369 74.5663 22.412L74.2375 24.3848ZM80.2254 30.0312L79.24 29.8609L79.2301 29.918L79.2269 29.9758L80.2254 30.0312ZM81.9598 20V19H81.1178L80.9744 19.8296L81.9598 20ZM84.1707 20L85.156 20.1706L85.3588 19H84.1707V20ZM82.0926 32V33H82.9343L83.0779 32.1706L82.0926 32ZM80.116 32L79.1175 31.9445L79.0589 33H80.116V32ZM75.4129 27.9375L76.4079 28.0381L76.4088 28.028L75.4129 27.9375ZM75.4285 27.7656L74.437 27.6354L74.4344 27.6552L74.4326 27.6751L75.4285 27.7656ZM75.7879 26.2031L74.8401 25.8841L74.8373 25.8925L75.7879 26.2031ZM76.5066 24.7656L75.6915 24.1862L75.6869 24.1928L76.5066 24.7656ZM79.2332 23.3828L79.2728 22.3836L79.2671 22.3834L79.2332 23.3828ZM80.5379 23.8281L79.9117 24.6079L79.919 24.6136L80.5379 23.8281ZM81.3348 24.8828L80.4173 25.2807L80.4202 25.2874L80.4232 25.2941L81.3348 24.8828ZM81.7254 26.25L80.7349 26.3884L80.7368 26.4004L81.7254 26.25ZM81.8113 27.6172L82.8059 27.7208L82.8094 27.6871L82.8107 27.6533L81.8113 27.6172ZM81.7723 27.9922L82.7565 28.1691L82.763 28.1327L82.7669 28.0958L81.7723 27.9922ZM81.3504 29.4297L80.4219 29.0583L80.4199 29.0634L81.3504 29.4297ZM80.5926 30.7969L79.789 30.2016L79.7878 30.2033L80.5926 30.7969ZM79.491 31.8047L78.978 30.9463L78.9734 30.9491L79.491 31.8047ZM78.0457 32.1641L78.0745 31.1645L78.0732 31.1644L78.0457 32.1641ZM76.6473 31.75L76.0529 32.5542L76.0594 32.559L76.066 32.5637L76.6473 31.75ZM75.8113 30.7266L74.908 31.1556L75.8113 30.7266ZM77.6394 27.7578L76.6477 27.6293L76.6456 27.6461L76.6439 27.663L77.6394 27.7578ZM77.6238 27.9219L76.6283 27.8271L76.6281 27.8293L77.6238 27.9219ZM77.5848 28.6797L76.5849 28.6612L76.5848 28.6704V28.6797H77.5848ZM77.6707 29.4844L76.694 29.6992L76.6966 29.7108L76.6994 29.7222L77.6707 29.4844ZM78.0066 30.125L77.2778 30.8097L77.2885 30.8211L77.2995 30.8321L78.0066 30.125ZM78.7254 30.3984L78.6754 31.3972L78.6859 31.3977L78.7254 30.3984ZM79.7488 30.125L80.3173 30.9478L80.3272 30.9407L79.7488 30.125ZM80.4363 29.3438L79.5628 28.8569L79.5568 28.8679L80.4363 29.3438ZM80.7879 28.3438L81.7747 28.5058L81.7764 28.4955L81.7778 28.4852L80.7879 28.3438ZM80.9363 27.3047L81.9263 27.4461L81.9286 27.4295L81.9305 27.4127L80.9363 27.3047ZM80.7566 25.8906L79.8329 26.2736L79.8368 26.2832L79.841 26.2926L80.7566 25.8906ZM80.3504 25.3672L79.7429 26.1616L79.7541 26.1699L80.3504 25.3672ZM79.6551 25.1562L79.6103 26.1552L79.6236 26.1558L79.6369 26.1561L79.6551 25.1562ZM78.7644 25.3828L79.3233 26.2121L79.3272 26.2094L78.7644 25.3828ZM78.1785 26.0234L79.0436 26.5252L79.0478 26.5177L78.1785 26.0234ZM77.8191 26.875L76.8582 26.5981L76.856 26.6057L76.854 26.6133L77.8191 26.875ZM81.2108 30.2016L82.9451 20.1704L80.9744 19.8296L79.24 29.8609L81.2108 30.2016ZM81.9598 21H84.1707V19H81.9598V21ZM83.1854 19.8294L81.1072 31.8294L83.0779 32.1706L85.156 20.1706L83.1854 19.8294ZM82.0926 31H80.116V33H82.0926V31ZM81.1145 32.0555L81.2238 30.0867L79.2269 29.9758L79.1175 31.9445L81.1145 32.0555ZM76.4088 28.028L76.4244 27.8562L74.4326 27.6751L74.417 27.847L76.4088 28.028ZM76.42 27.8958C76.4792 27.4452 76.5845 26.9847 76.7384 26.5137L74.8373 25.8925C74.6475 26.4736 74.5133 27.0548 74.437 27.6354L76.42 27.8958ZM76.7356 26.5222C76.8839 26.0816 77.0816 25.6887 77.3263 25.3384L75.6869 24.1928C75.3275 24.7072 75.046 25.2725 74.8401 25.8841L76.7356 26.5222ZM77.3217 25.345C77.5471 25.0278 77.8167 24.7843 78.1345 24.6032L77.1444 22.8655C76.5663 23.1949 76.0807 23.6388 75.6916 24.1862L77.3217 25.345ZM78.1345 24.6032C78.3929 24.456 78.7337 24.3665 79.1993 24.3822L79.2671 22.3834C78.5035 22.3575 77.7818 22.5023 77.1444 22.8655L78.1345 24.6032ZM79.1936 24.382C79.5484 24.3961 79.7655 24.4904 79.9117 24.6078L81.164 23.0484C80.6228 22.6138 79.9701 22.4112 79.2728 22.3836L79.1936 24.382ZM79.919 24.6136C80.1228 24.7742 80.2905 24.9884 80.4173 25.2807L82.2522 24.4849C82.004 23.9127 81.6405 23.4237 81.1568 23.0426L79.919 24.6136ZM80.4232 25.2941C80.5751 25.6307 80.6799 25.9942 80.735 26.3884L82.7157 26.1116C82.6354 25.5371 82.4798 24.9891 82.2463 24.4715L80.4232 25.2941ZM80.7368 26.4004C80.8014 26.8252 80.8251 27.2181 80.812 27.5811L82.8107 27.6533C82.8288 27.1517 82.7952 26.6332 82.714 26.0996L80.7368 26.4004ZM80.8167 27.5136L80.7776 27.8886L82.7669 28.0958L82.8059 27.7208L80.8167 27.5136ZM80.788 27.8152C80.7181 28.2042 80.5979 28.6182 80.4219 29.0583L82.2789 29.8011C82.4987 29.2516 82.6597 28.7072 82.7565 28.1691L80.788 27.8152ZM80.4199 29.0634C80.2592 29.4716 80.0492 29.8504 79.789 30.2016L81.3961 31.3921C81.7609 30.8996 82.0561 30.3669 82.2809 29.796L80.4199 29.0634ZM79.7878 30.2033C79.556 30.5176 79.2866 30.7619 78.978 30.9463L80.004 32.6631C80.5496 32.3371 81.0146 31.9094 81.3974 31.3904L79.7878 30.2033ZM78.9734 30.9491C78.7322 31.095 78.4438 31.1751 78.0745 31.1645L78.0169 33.1636C78.731 33.1842 79.4061 33.0248 80.0086 32.6603L78.9734 30.9491ZM78.0732 31.1644C77.6513 31.1528 77.3927 31.0535 77.2285 30.9363L76.066 32.5637C76.631 32.9673 77.3047 33.144 78.0182 33.1637L78.0732 31.1644ZM77.2416 30.9458C77.0189 30.7812 76.8443 30.5706 76.7146 30.2975L74.908 31.1556C75.1741 31.7159 75.5569 32.1876 76.0529 32.5542L77.2416 30.9458ZM76.7146 30.2975C76.5667 29.9861 76.4672 29.6395 76.4217 29.251L74.4353 29.4834C74.5044 30.074 74.6601 30.6337 74.908 31.1556L76.7146 30.2975ZM76.4217 29.251C76.3724 28.8292 76.3686 28.4255 76.4078 28.0381L74.418 27.8369C74.3634 28.3766 74.37 28.926 74.4353 29.4834L76.4217 29.251ZM76.6439 27.663L76.6283 27.8271L78.6193 28.0167L78.6349 27.8526L76.6439 27.663ZM76.6281 27.8293C76.6045 28.083 76.5905 28.361 76.5849 28.6612L78.5846 28.6982C78.5894 28.4359 78.6015 28.2086 78.6195 28.0145L76.6281 27.8293ZM76.5848 28.6797C76.5848 29.0254 76.6207 29.3658 76.694 29.6992L78.6473 29.2695C78.6061 29.0821 78.5848 28.886 78.5848 28.6797H76.5848ZM76.6994 29.7222C76.7981 30.1253 76.9853 30.4984 77.2778 30.8097L78.7355 29.4403C78.705 29.4079 78.6683 29.3539 78.642 29.2465L76.6994 29.7222ZM77.2995 30.8321C77.6924 31.2249 78.198 31.3733 78.6754 31.3972L78.7753 29.3997C78.7014 29.396 78.67 29.3849 78.6669 29.3837C78.6659 29.3833 78.6714 29.3854 78.6811 29.3915C78.691 29.3978 78.7024 29.4066 78.7137 29.4179L77.2995 30.8321ZM78.6859 31.3977C79.267 31.4206 79.8286 31.2854 80.3172 30.9477L79.1804 29.3023C79.0961 29.3605 78.9754 29.4075 78.7648 29.3992L78.6859 31.3977ZM80.3272 30.9407C80.7425 30.6463 81.0732 30.2682 81.3159 29.8196L79.5568 28.8679C79.4557 29.0547 79.3281 29.1974 79.1704 29.3093L80.3272 30.9407ZM81.3098 29.8306C81.5415 29.4149 81.6981 28.972 81.7747 28.5058L79.8011 28.1817C79.7631 28.4134 79.6853 28.6372 79.5628 28.8569L81.3098 29.8306ZM81.7778 28.4852L81.9263 27.4461L79.9464 27.1633L79.7979 28.2023L81.7778 28.4852ZM81.9305 27.4127C81.9644 27.1006 81.9641 26.7867 81.9307 26.4723L79.9419 26.6839C79.9606 26.8591 79.9603 27.0296 79.9422 27.1966L81.9305 27.4127ZM81.9307 26.4723C81.8944 26.1311 81.8096 25.8014 81.6723 25.4886L79.841 26.2926C79.8912 26.4069 79.9262 26.5356 79.9419 26.6839L81.9307 26.4723ZM81.6804 25.5076C81.5239 25.1303 81.2768 24.8096 80.9467 24.5644L79.7541 26.1699C79.7886 26.1956 79.8122 26.2239 79.8329 26.2736L81.6804 25.5076ZM80.9578 24.5728C80.5685 24.2751 80.112 24.1644 79.6732 24.1564L79.6369 26.1561C79.7042 26.1573 79.7402 26.1658 79.7534 26.1698C79.7647 26.1732 79.7574 26.1726 79.7429 26.1615L80.9578 24.5728ZM79.6998 24.1573C79.1751 24.1338 78.6555 24.2472 78.2016 24.5562L79.3272 26.2094C79.3629 26.1851 79.4371 26.1475 79.6103 26.1552L79.6998 24.1573ZM78.2056 24.5535C77.8307 24.8062 77.532 25.1373 77.3092 25.5291L79.0478 26.5177C79.1271 26.3783 79.219 26.2824 79.3233 26.2121L78.2056 24.5535ZM77.3135 25.5217C77.1189 25.8571 76.968 26.2171 76.8582 26.5981L78.78 27.1519C78.8473 26.9183 78.936 26.7106 79.0435 26.5252L77.3135 25.5217ZM76.854 26.6133C76.7602 26.9591 76.6907 27.298 76.6477 27.6293L78.6311 27.8864C78.6611 27.6551 78.7114 27.4055 78.7843 27.1367L76.854 26.6133ZM87.8926 25.5078L88.8779 25.6786L88.8834 25.6468L88.8868 25.6148L87.8926 25.5078ZM86.7676 32V33H87.6092L87.7529 32.1707L86.7676 32ZM84.5723 32L83.587 31.8288L83.3835 33H84.5723V32ZM86.041 23.5469V22.5469H85.1998L85.0558 23.3757L86.041 23.5469ZM88.1035 23.5469L89.0978 23.6538L89.2168 22.5469H88.1035V23.5469ZM90.6504 23.4766L91.642 23.6056L91.758 22.714L90.8838 22.5042L90.6504 23.4766ZM90.3769 25.5781L90.2125 26.5645L91.2349 26.7349L91.3686 25.7071L90.3769 25.5781ZM89.9941 25.5234L89.8701 26.5157L89.875 26.5163L89.9941 25.5234ZM89.6113 25.4922L89.6513 24.493L89.6399 24.4925L89.6286 24.4923L89.6113 25.4922ZM88.1504 25.9766L88.812 26.7264L88.8134 26.7252L88.1504 25.9766ZM87.6973 26.5547L86.8194 26.0758L86.8151 26.0836L86.811 26.0914L87.6973 26.5547ZM87.4238 27.3281L87.1128 28.2785L88.1649 28.6228L88.4008 27.5413L87.4238 27.3281ZM86.9941 27.1875L86.0025 27.0587L85.8958 27.8802L86.6831 28.1379L86.9941 27.1875ZM87.2519 25.9219L86.2887 25.6531L86.2867 25.6607L87.2519 25.9219ZM87.7676 24.6719L86.9 24.1745L86.8979 24.1783L87.7676 24.6719ZM88.6191 23.7266L89.1909 24.547L89.1934 24.5452L88.6191 23.7266ZM89.8926 23.3672L89.8822 24.3672H89.8926V23.3672ZM90.2676 23.3984L90.0962 24.3837L90.1032 24.3848L90.2676 23.3984ZM86.9073 25.3371L85.7823 31.8293L87.7529 32.1707L88.8779 25.6786L86.9073 25.3371ZM86.7676 31H84.5723V33H86.7676V31ZM85.5575 32.1712L87.0262 23.7181L85.0558 23.3757L83.587 31.8288L85.5575 32.1712ZM86.041 24.5469H88.1035V22.5469H86.041V24.5469ZM87.1092 23.4399L86.8983 25.4009L88.8868 25.6148L89.0978 23.6538L87.1092 23.4399ZM89.6587 23.3475L89.3853 25.4491L91.3686 25.7071L91.642 23.6056L89.6587 23.3475ZM90.5413 24.5917C90.4008 24.5683 90.2581 24.5479 90.1133 24.5306L89.875 26.5163C89.9906 26.5302 90.1031 26.5463 90.2125 26.5645L90.5413 24.5917ZM90.1182 24.5312C89.9643 24.5119 89.8086 24.4993 89.6513 24.493L89.5713 26.4914C89.6744 26.4955 89.7739 26.5037 89.8701 26.5157L90.1182 24.5312ZM89.6286 24.4923C89.2301 24.4855 88.8395 24.5365 88.4687 24.6627L89.1133 26.556C89.2321 26.5156 89.3883 26.4885 89.5941 26.492L89.6286 24.4923ZM88.4687 24.6627C88.1062 24.7861 87.775 24.9732 87.4873 25.228L88.8134 26.7252C88.8903 26.657 88.9862 26.5993 89.1133 26.556L88.4687 24.6627ZM87.4888 25.2267C87.2156 25.4677 86.9943 25.7552 86.8194 26.0758L88.5751 27.0335C88.6502 26.8959 88.731 26.7979 88.812 26.7264L87.4888 25.2267ZM86.811 26.0914C86.6449 26.4093 86.5258 26.7529 86.4468 27.115L88.4008 27.5413C88.4468 27.3305 88.51 27.1584 88.5835 27.0179L86.811 26.0914ZM87.7349 26.3777L87.3052 26.2371L86.6831 28.1379L87.1128 28.2785L87.7349 26.3777ZM87.9858 27.3163C88.0314 26.9654 88.1077 26.5879 88.2172 26.1831L86.2867 25.6607C86.1566 26.1412 86.0611 26.6075 86.0025 27.0587L87.9858 27.3163ZM88.2151 26.1907C88.3193 25.8174 88.4606 25.4766 88.6373 25.1655L86.8979 24.1783C86.637 24.6379 86.4346 25.1306 86.2887 25.6531L88.2151 26.1907ZM88.6351 25.1693C88.7911 24.8971 88.9773 24.6959 89.1909 24.547L88.0473 22.9062C87.5735 23.2364 87.1919 23.6654 86.9 24.1745L88.6351 25.1693ZM89.1934 24.5452C89.343 24.4403 89.5539 24.3637 89.8822 24.3671L89.903 22.3672C89.2312 22.3602 88.5931 22.5233 88.0448 22.9079L89.1934 24.5452ZM89.8926 24.3672C89.9694 24.3672 90.0368 24.3733 90.0962 24.3836L90.4389 22.4132C90.2587 22.3819 90.0762 22.3672 89.8926 22.3672V24.3672ZM90.1032 24.3848C90.2038 24.4016 90.3083 24.4229 90.417 24.4489L90.8838 22.5042C90.732 22.4678 90.5814 22.4369 90.432 22.412L90.1032 24.3848ZM91.2082 27.9062L90.2182 27.7648L90.2141 27.7939L90.2116 27.8232L91.2082 27.9062ZM91.2316 27.7422L92.2216 27.8836L92.2243 27.8648L92.2262 27.846L91.2316 27.7422ZM91.6613 26.0547L90.7431 25.6586L90.7412 25.663L91.6613 26.0547ZM92.5676 24.6562L91.8374 23.9729L91.8371 23.9733L92.5676 24.6562ZM93.9035 23.7109L94.3053 24.6267L94.3096 24.6247L93.9035 23.7109ZM95.6379 23.3906L95.6135 24.3904L95.6208 24.3905L95.6379 23.3906ZM98.3019 24.7031L97.4867 25.2824L97.4918 25.2894L98.3019 24.7031ZM98.9035 26.0625L97.9277 26.2815L97.93 26.291L98.9035 26.0625ZM99.0051 27.6797L98.0092 27.5883L98.0092 27.5892L99.0051 27.6797ZM98.9894 27.8516L99.983 27.9649L99.9843 27.9535L99.9853 27.9421L98.9894 27.8516ZM98.5363 29.5312L97.6229 29.1243L97.621 29.1285L98.5363 29.5312ZM97.6223 30.9141L96.8965 30.2261L96.8963 30.2263L97.6223 30.9141ZM94.5676 32.1562L94.5924 31.1565L94.585 31.1564L94.5676 32.1562ZM92.9973 31.7969L92.5336 32.6829L92.5418 32.6871L92.9973 31.7969ZM91.9035 30.8594L91.0883 31.4386L91.092 31.4437L91.9035 30.8594ZM91.3098 29.5078L90.3345 29.729L91.3098 29.5078ZM93.4269 27.7422L92.4326 27.6357L92.4318 27.6436L92.431 27.6517L93.4269 27.7422ZM93.4113 27.9141L94.406 28.0177L94.4072 28.0046L93.4113 27.9141ZM93.3879 28.7188L92.3885 28.7551L92.3886 28.7558L93.3879 28.7188ZM93.5207 29.5234L92.5645 29.8162L92.5672 29.825L92.5701 29.8338L93.5207 29.5234ZM93.9269 30.1484L93.2744 30.9062L93.9269 30.1484ZM94.7004 30.4062L94.6686 31.4057L94.6705 31.4058L94.7004 30.4062ZM96.216 29.5859L97.0611 30.1206L97.0659 30.1129L96.216 29.5859ZM96.5988 28.7422L97.5539 29.0386L97.5553 29.034L96.5988 28.7422ZM96.7863 27.8438L97.7807 27.9503L97.7818 27.9386L96.7863 27.8438ZM96.8019 27.6797L97.7975 27.7745L97.7985 27.7627L96.8019 27.6797ZM96.8176 26.875L95.8177 26.8929L95.8179 26.9021L95.8182 26.9113L96.8176 26.875ZM96.6848 26.0547L95.7323 26.3595L95.7341 26.3651L96.6848 26.0547ZM95.5051 25.1484L95.4603 26.1475L95.4733 26.1479L95.5051 25.1484ZM94.6066 25.3672L95.1366 26.2152L95.1429 26.2113L95.1492 26.2072L94.6066 25.3672ZM93.6066 26.8438L92.6502 26.5519L92.6479 26.5594L92.6457 26.5669L93.6066 26.8438ZM92.1981 28.0477L92.2216 27.8836L90.2417 27.6008L90.2182 27.7648L92.1981 28.0477ZM92.2262 27.846C92.2789 27.3409 92.3985 26.8759 92.5814 26.4464L90.7412 25.663C90.4762 26.2855 90.3093 26.9456 90.237 27.6384L92.2262 27.846ZM92.5795 26.4508C92.7656 26.0195 93.0058 25.6517 93.298 25.3392L91.8371 23.9733C91.3793 24.4629 91.0154 25.0273 90.7431 25.6586L92.5795 26.4508ZM93.2977 25.3396C93.5852 25.0324 93.9187 24.7963 94.3053 24.6267L93.5017 22.7952C92.8675 23.0735 92.3104 23.4676 91.8374 23.9729L93.2977 25.3396ZM94.3096 24.6247C94.6726 24.4634 95.1008 24.3778 95.6135 24.3903L95.6623 22.3909C94.8937 22.3722 94.1656 22.5001 93.4974 22.7971L94.3096 24.6247ZM95.6208 24.3905C96.1065 24.3988 96.4714 24.4951 96.7481 24.6416L97.6839 22.874C97.0752 22.5518 96.388 22.4033 95.655 22.3908L95.6208 24.3905ZM96.7481 24.6416C97.0574 24.8053 97.2988 25.0178 97.4868 25.2823L99.1171 24.1239C98.7426 23.5968 98.26 23.179 97.6839 22.874L96.7481 24.6416ZM97.4918 25.2894C97.6932 25.5677 97.8408 25.894 97.9278 26.2815L99.8792 25.8435C99.737 25.2101 99.4836 24.6302 99.1121 24.1169L97.4918 25.2894ZM97.93 26.291C98.0231 26.6879 98.0524 27.1184 98.0092 27.5883L100.001 27.771C100.062 27.1056 100.023 26.4579 99.8771 25.834L97.93 26.291ZM98.0092 27.5892L97.9935 27.761L99.9853 27.9421L100.001 27.7702L98.0092 27.5892ZM97.9959 27.7383C97.9393 28.2345 97.8142 28.6949 97.6229 29.1243L99.4498 29.9382C99.7272 29.3155 99.9042 28.6562 99.983 27.9649L97.9959 27.7383ZM97.621 29.1285C97.4368 29.5472 97.1953 29.911 96.8965 30.2261L98.348 31.6021C98.8097 31.1151 99.1775 30.5569 99.4516 29.934L97.621 29.1285ZM96.8963 30.2263C96.6168 30.5213 96.2839 30.7545 95.8879 30.9265L96.6847 32.761C97.3199 32.4851 97.8777 32.0985 98.3482 31.6018L96.8963 30.2263ZM95.8879 30.9265C95.5211 31.0859 95.0949 31.169 94.5924 31.1566L94.5428 33.1559C95.3006 33.1747 96.0203 33.0495 96.6847 32.761L95.8879 30.9265ZM94.585 31.1564C94.1097 31.1481 93.7414 31.0543 93.4527 30.9066L92.5418 32.6871C93.149 32.9978 93.8275 33.1435 94.5502 33.1561L94.585 31.1564ZM93.4609 30.9108C93.1437 30.7449 92.9008 30.5331 92.715 30.2751L91.092 31.4437C91.4687 31.9669 91.955 32.3801 92.5336 32.6829L93.4609 30.9108ZM92.7187 30.2802C92.5189 29.999 92.3723 29.6718 92.285 29.2866L90.3345 29.729C90.4763 30.3542 90.7256 30.9281 91.0883 31.4386L92.7187 30.2802ZM92.285 29.2866C92.195 28.8897 92.1656 28.459 92.2047 27.9893L90.2116 27.8232C90.157 28.4785 90.1954 29.1155 90.3345 29.729L92.285 29.2866ZM92.431 27.6517L92.4154 27.8235L94.4072 28.0046L94.4228 27.8327L92.431 27.6517ZM92.4167 27.8105C92.3852 28.1129 92.3767 28.4283 92.3885 28.7551L94.3872 28.6824C94.3783 28.4363 94.3854 28.2153 94.4059 28.0177L92.4167 27.8105ZM92.3886 28.7558C92.402 29.119 92.4596 29.4735 92.5645 29.8162L94.4769 29.2307C94.4255 29.0629 94.3946 28.881 94.3872 28.6817L92.3886 28.7558ZM92.5701 29.8338C92.7051 30.2473 92.9369 30.6156 93.2744 30.9062L94.5795 29.3907C94.542 29.3584 94.503 29.31 94.4713 29.213L92.5701 29.8338ZM93.2744 30.9062C93.6845 31.2593 94.187 31.3905 94.6686 31.4057L94.7321 29.4068C94.6454 29.404 94.5974 29.3921 94.5772 29.3853C94.5595 29.3794 94.5653 29.3785 94.5795 29.3907L93.2744 30.9062ZM94.6705 31.4058C95.1738 31.4208 95.6714 31.3198 96.1159 31.0512L95.0817 29.3394C95.0262 29.3729 94.9249 29.4125 94.7302 29.4067L94.6705 31.4058ZM96.1159 31.0512C96.5033 30.8172 96.8196 30.5023 97.0611 30.1206L95.3709 29.0513C95.2895 29.18 95.1944 29.2713 95.0817 29.3394L96.1159 31.0512ZM97.0659 30.1129C97.2735 29.7781 97.4358 29.419 97.5539 29.0386L95.6438 28.4458C95.5743 28.6695 95.4814 28.873 95.3661 29.059L97.0659 30.1129ZM97.5553 29.034C97.6658 28.6719 97.742 28.3104 97.7806 27.9503L95.792 27.7372C95.7681 27.9605 95.7194 28.1979 95.6423 28.4504L97.5553 29.034ZM97.7818 27.9386L97.7974 27.7745L95.8064 27.5849L95.7908 27.7489L97.7818 27.9386ZM97.7985 27.7627C97.8231 27.4679 97.8286 27.1594 97.8169 26.8387L95.8182 26.9113C95.8274 27.1635 95.8225 27.3915 95.8054 27.5966L97.7985 27.7627ZM97.8174 26.8571C97.8106 26.4746 97.7521 26.1018 97.6354 25.7443L95.7341 26.3651C95.7841 26.518 95.8141 26.692 95.8177 26.8929L97.8174 26.8571ZM97.6372 25.7499C97.5043 25.3346 97.2762 24.963 96.9429 24.6667L95.6141 26.1615C95.6558 26.1985 95.6985 26.2539 95.7323 26.3595L97.6372 25.7499ZM96.9429 24.6667C96.5326 24.302 96.0257 24.1645 95.5368 24.1489L95.4733 26.1479C95.5573 26.1506 95.6022 26.1624 95.6197 26.1684C95.6343 26.1735 95.6276 26.1734 95.6141 26.1615L96.9429 24.6667ZM95.5498 24.1494C95.0304 24.1262 94.5174 24.2344 94.0641 24.5271L95.1492 26.2072C95.1959 26.1771 95.2818 26.1394 95.4603 26.1474L95.5498 24.1494ZM94.0766 24.5192C93.6917 24.7598 93.3784 25.08 93.1395 25.4652L94.8393 26.5191C94.9234 26.3835 95.0216 26.2871 95.1366 26.2152L94.0766 24.5192ZM93.1395 25.4652C92.9304 25.8026 92.7679 26.166 92.6502 26.5519L94.5631 27.1356C94.6329 26.9069 94.7256 26.7026 94.8393 26.5191L93.1395 25.4652ZM92.6457 26.5669C92.5426 26.9249 92.4706 27.2815 92.4326 27.6357L94.4213 27.8487C94.4458 27.6196 94.4936 27.3771 94.5675 27.1206L92.6457 26.5669ZM102.469 20V19H101.628L101.484 19.8287L102.469 20ZM104.672 20L105.657 20.1715L105.861 19H104.672V20ZM102.899 30.1875L103.86 30.465L103.875 30.4126L103.884 30.359L102.899 30.1875ZM102.375 32V33H103.127L103.336 32.2775L102.375 32ZM100.383 32L99.398 31.8287L99.1944 33H100.383V32ZM108.516 27.6406L107.522 27.5326L107.521 27.5413L107.52 27.5501L108.516 27.6406ZM108.5 27.8125L109.492 27.9414L109.495 27.9223L109.496 27.903L108.5 27.8125ZM108.141 29.375L107.191 29.0616L107.189 29.0702L108.141 29.375ZM107.438 30.7969L106.621 30.2194L106.62 30.2214L107.438 30.7969ZM106.321 31.8125L106.812 32.6833L106.816 32.6814L106.321 31.8125ZM104.743 32.1641L104.713 33.1636L104.717 33.1637L104.743 32.1641ZM103.414 31.7422L102.801 32.5322L102.809 32.5379L103.414 31.7422ZM102.602 30.7109L101.692 31.1264L101.694 31.1307L102.602 30.7109ZM102.211 29.3594L101.221 29.4978L101.221 29.4993L102.211 29.3594ZM102.133 27.9688L101.139 27.863L101.135 27.8981L101.134 27.9335L102.133 27.9688ZM102.172 27.6016L101.188 27.4265L101.182 27.461L101.178 27.4958L102.172 27.6016ZM103.329 24.7656L102.52 24.1768L102.515 24.1834L103.329 24.7656ZM104.422 23.75L104.94 24.6056L104.943 24.6038L104.422 23.75ZM105.891 23.3828L105.863 24.3825L105.873 24.3827L105.891 23.3828ZM107.313 23.7891L106.732 24.6028L106.737 24.6067L107.313 23.7891ZM108.157 24.8125L107.247 25.228L107.249 25.2323L108.157 24.8125ZM108.516 26.1797L107.52 26.274L107.521 26.2844L108.516 26.1797ZM106.305 27.8047L107.297 27.9332L107.302 27.8918L107.304 27.8501L106.305 27.8047ZM106.313 27.6328L105.319 27.5224L105.315 27.5548L105.314 27.5874L106.313 27.6328ZM106.36 26.8594L105.36 26.8224L105.36 26.8316L105.36 26.8409L106.36 26.8594ZM105.954 25.4219L105.236 26.118L105.241 26.1235L105.246 26.129L105.954 25.4219ZM105.219 25.1484L105.17 26.1472L105.178 26.1476L105.187 26.1479L105.219 25.1484ZM104.383 25.2969L103.952 24.3947L103.944 24.3985L104.383 25.2969ZM103.375 26.4688L104.301 26.8467L104.304 26.8401L103.375 26.4688ZM103.149 27.2656L102.163 27.0982L102.161 27.1107L102.159 27.1232L103.149 27.2656ZM103 28.2969L102.011 28.1544L102.005 28.1938L102.002 28.2335L103 28.2969ZM103.438 30.0625L102.704 30.7423L102.713 30.7515L102.722 30.7606L103.438 30.0625ZM104.329 30.3906L104.372 29.3916L104.364 29.3912L104.355 29.391L104.329 30.3906ZM105.227 30.1797L105.773 31.0173L105.78 31.0132L105.786 31.009L105.227 30.1797ZM106.133 28.6953L105.163 28.4528L105.16 28.4644L106.133 28.6953ZM102.469 21H104.672V19H102.469V21ZM103.687 19.8285L101.914 30.016L103.884 30.359L105.657 20.1715L103.687 19.8285ZM101.938 29.91L101.415 31.7225L103.336 32.2775L103.86 30.465L101.938 29.91ZM102.375 31H100.383V33H102.375V31ZM101.368 32.1713L103.454 20.1713L101.484 19.8287L99.398 31.8287L101.368 32.1713ZM107.52 27.5501L107.504 27.722L109.496 27.903L109.512 27.7312L107.52 27.5501ZM107.509 27.6836C107.45 28.139 107.344 28.5982 107.191 29.0616L109.091 29.6884C109.281 29.1102 109.416 28.5276 109.492 27.9414L107.509 27.6836ZM107.189 29.0702C107.052 29.4982 106.862 29.8795 106.621 30.2194L108.254 31.3743C108.618 30.8601 108.897 30.2935 109.093 29.6798L107.189 29.0702ZM106.62 30.2214C106.408 30.523 106.146 30.7613 105.826 30.9436L106.816 32.6814C107.392 32.3533 107.874 31.9145 108.256 31.3724L106.62 30.2214ZM105.829 30.9417C105.573 31.0865 105.233 31.1763 104.768 31.1644L104.717 33.1637C105.471 33.1831 106.183 33.0385 106.812 32.6833L105.829 30.9417ZM104.772 31.1645C104.396 31.1536 104.169 31.0596 104.02 30.9465L102.809 32.5379C103.358 32.956 104.016 33.1433 104.713 33.1636L104.772 31.1645ZM104.028 30.9522C103.81 30.7833 103.638 30.5685 103.51 30.2912L101.694 31.1307C101.951 31.6867 102.321 32.1594 102.801 32.5322L104.028 30.9522ZM103.512 30.2954C103.361 29.9648 103.256 29.6075 103.201 29.2195L101.221 29.4993C101.302 30.0696 101.458 30.6133 101.692 31.1264L103.512 30.2954ZM103.202 29.2209C103.141 28.7882 103.119 28.383 103.133 28.004L101.134 27.9335C101.116 28.4399 101.146 28.9618 101.221 29.4978L103.202 29.2209ZM103.128 28.0745L103.167 27.7073L101.178 27.4958L101.139 27.863L103.128 28.0745ZM103.157 27.7766C103.228 27.3782 103.347 26.9556 103.519 26.5081L101.653 25.7888C101.44 26.3412 101.284 26.8875 101.188 27.4265L103.157 27.7766ZM103.519 26.5081C103.683 26.0844 103.89 25.6987 104.142 25.3478L102.515 24.1834C102.163 24.6763 101.875 25.2124 101.653 25.7888L103.519 26.5081ZM104.137 25.3544C104.371 25.0335 104.638 24.7881 104.94 24.6056L103.905 22.8944C103.363 23.2223 102.901 23.654 102.52 24.1769L104.137 25.3544ZM104.943 24.6038C105.188 24.4544 105.483 24.3717 105.863 24.3824L105.919 22.3832C105.195 22.3627 104.511 22.5248 103.902 22.8962L104.943 24.6038ZM105.873 24.3827C106.315 24.3905 106.575 24.4909 106.732 24.6028L107.894 22.9753C107.322 22.5664 106.634 22.3959 105.909 22.383L105.873 24.3827ZM106.737 24.6067C106.958 24.7623 107.126 24.9631 107.247 25.228L109.066 24.397C108.802 23.8182 108.407 23.3366 107.889 22.9715L106.737 24.6067ZM107.249 25.2323C107.39 25.538 107.483 25.8826 107.52 26.274L109.512 26.0854C109.455 25.4872 109.308 24.9203 109.064 24.3927L107.249 25.2323ZM107.521 26.2844C107.566 26.7107 107.566 27.1263 107.522 27.5326L109.51 27.7487C109.57 27.1966 109.57 26.6382 109.511 26.075L107.521 26.2844ZM107.304 27.8501L107.312 27.6782L105.314 27.5874L105.306 27.7593L107.304 27.8501ZM107.307 27.7432C107.337 27.4732 107.354 27.1842 107.36 26.8779L105.36 26.8409C105.355 27.097 105.341 27.3237 105.319 27.5224L107.307 27.7432ZM107.359 26.8964C107.372 26.5356 107.343 26.1809 107.265 25.8356L105.314 26.2737C105.351 26.4388 105.368 26.6206 105.36 26.8224L107.359 26.8964ZM107.265 25.8356C107.171 25.4165 106.976 25.0298 106.661 24.7148L105.246 26.129C105.265 26.1473 105.293 26.1824 105.314 26.2737L107.265 25.8356ZM106.671 24.7257C106.269 24.3103 105.741 24.1647 105.251 24.149L105.187 26.1479C105.225 26.1491 105.252 26.1525 105.271 26.1558C105.289 26.159 105.296 26.1619 105.296 26.1618C105.295 26.1615 105.288 26.1585 105.275 26.1507C105.263 26.1427 105.249 26.1317 105.236 26.118L106.671 24.7257ZM105.268 24.1496C104.817 24.1275 104.368 24.1957 103.952 24.3947L104.815 26.199C104.878 26.1689 104.985 26.1382 105.17 26.1472L105.268 24.1496ZM103.944 24.3985C103.58 24.5766 103.266 24.8259 103.009 25.1391L104.555 26.4078C104.631 26.3148 104.718 26.2463 104.822 26.1953L103.944 24.3985ZM103.009 25.1391C102.773 25.4266 102.587 25.7483 102.447 26.0974L104.304 26.8401C104.373 26.6684 104.457 26.5265 104.555 26.4078L103.009 25.1391ZM102.45 26.0909C102.317 26.4149 102.222 26.7512 102.163 27.0982L104.135 27.433C104.17 27.228 104.225 27.033 104.301 26.8466L102.45 26.0909ZM102.159 27.1232L102.011 28.1544L103.99 28.4393L104.139 27.4081L102.159 27.1232ZM102.002 28.2335C101.977 28.6407 101.999 29.0445 102.071 29.4431L104.039 29.0882C103.996 28.8513 103.983 28.6093 103.998 28.3602L102.002 28.2335ZM102.071 29.4431C102.158 29.9276 102.363 30.3737 102.704 30.7423L104.171 29.3827C104.117 29.3242 104.066 29.2391 104.039 29.0882L102.071 29.4431ZM102.722 30.7606C103.162 31.212 103.743 31.3754 104.302 31.3903L104.355 29.391C104.244 29.388 104.184 29.3718 104.159 29.3624C104.138 29.3547 104.143 29.3528 104.154 29.3644L102.722 30.7606ZM104.285 31.3897C104.799 31.412 105.318 31.314 105.773 31.0173L104.681 29.3421C104.656 29.3579 104.577 29.4005 104.372 29.3916L104.285 31.3897ZM105.786 31.009C106.16 30.7571 106.458 30.4278 106.678 30.0355L104.933 29.0583C104.861 29.1868 104.774 29.2794 104.668 29.3504L105.786 31.009ZM106.678 30.0355C106.871 29.6897 107.013 29.3184 107.106 28.9262L105.16 28.4644C105.107 28.6868 105.031 28.8833 104.933 29.0583L106.678 30.0355ZM107.103 28.9378C107.19 28.5927 107.255 28.2576 107.297 27.9332L105.313 27.6761C105.282 27.9143 105.233 28.1729 105.163 28.4528L107.103 28.9378ZM113.894 32.1562L113.876 33.1561L113.881 33.1562L113.894 32.1562ZM112.332 31.8281L111.913 32.7364L111.922 32.7402L112.332 31.8281ZM111.168 30.9531L110.398 31.5923L110.404 31.5986L111.168 30.9531ZM110.488 29.6641L109.529 29.9495L110.488 29.6641ZM110.332 28.0859L109.336 27.9888L109.335 28.0004L109.334 28.0121L110.332 28.0859ZM110.363 27.7656L109.368 27.66L109.368 27.6685L110.363 27.7656ZM111.691 24.6797L112.426 25.358L112.43 25.3533L111.691 24.6797ZM113.019 23.7188L113.429 24.631L113.433 24.6291L113.019 23.7188ZM114.738 23.3906L114.713 24.3903L114.72 24.3905L114.738 23.3906ZM117.777 25.9922L116.794 26.1783L116.795 26.1803L117.777 25.9922ZM117.832 27.5312L118.823 27.6634L118.825 27.6504L118.826 27.6374L117.832 27.5312ZM117.707 28.4688V29.4688H118.582L118.698 28.6009L117.707 28.4688ZM111.175 28.4688L110.188 28.3094L110.001 29.4688H111.175V28.4688ZM111.418 26.9688L111.419 25.9688L110.566 25.9672L110.43 26.8094L111.418 26.9688ZM115.73 26.9766L115.728 27.9766L116.55 27.978L116.711 27.1727L115.73 26.9766ZM115.769 26.7812L116.75 26.9774L116.755 26.9514L116.759 26.9252L115.769 26.7812ZM115.73 25.9844L114.765 26.2458L114.766 26.251L115.73 25.9844ZM114.597 25.1406L114.631 24.1412L114.626 24.141L114.597 25.1406ZM113.691 25.3672L113.14 24.5324L113.691 25.3672ZM112.73 26.875L113.695 27.1367L113.696 27.1327L112.73 26.875ZM112.55 27.7656L111.558 27.6394L111.557 27.6527L111.555 27.6661L112.55 27.7656ZM112.519 28.0781L111.524 27.9786L111.524 27.9842L112.519 28.0781ZM112.543 28.9062L111.554 29.0555L111.554 29.0583L112.543 28.9062ZM112.785 29.6406L111.908 30.1209L111.912 30.1289L111.917 30.1368L112.785 29.6406ZM113.293 30.1719L112.757 31.0164L112.766 31.0221L113.293 30.1719ZM114.113 30.3906L114.081 31.3901L114.088 31.3903L114.113 30.3906ZM115.261 30.1484L115.703 31.0455L115.709 31.0429L115.261 30.1484ZM116.214 29.4453L116.984 28.8071L116.271 27.9463L115.495 28.7512L116.214 29.4453ZM117.199 30.6328L118.033 31.1847L118.442 30.5659L117.969 29.9946L117.199 30.6328ZM116.3 31.5078L116.829 32.3565L116.833 32.3544L116.3 31.5078ZM115.136 32L114.894 31.0298L114.882 31.0328L115.136 32ZM113.912 31.1564C113.451 31.1481 113.066 31.0618 112.742 30.916L111.922 32.7402C112.524 33.0111 113.181 33.1436 113.876 33.1561L113.912 31.1564ZM112.75 30.9199C112.412 30.7642 112.144 30.5596 111.931 30.3077L110.404 31.5986C110.816 32.0862 111.324 32.465 111.913 32.7364L112.75 30.9199ZM111.937 30.314C111.721 30.0545 111.556 29.7469 111.446 29.3786L109.529 29.9495C109.711 30.5604 110 31.1122 110.398 31.5922L111.937 30.314ZM111.446 29.3786C111.339 29.017 111.295 28.6138 111.329 28.1598L109.334 28.0121C109.285 28.6831 109.346 29.332 109.529 29.9495L111.446 29.3786ZM111.327 28.183L111.358 27.8627L109.368 27.6685L109.336 27.9888L111.327 28.183ZM111.357 27.8712C111.41 27.3774 111.529 26.9131 111.714 26.4744L109.871 25.6975C109.608 26.3213 109.441 26.9767 109.368 27.66L111.357 27.8712ZM111.714 26.4744C111.895 26.0452 112.133 25.6755 112.426 25.358L110.956 24.0014C110.499 24.4963 110.138 25.0642 109.871 25.6975L111.714 26.4744ZM112.43 25.3533C112.712 25.0436 113.043 24.8043 113.429 24.631L112.61 22.8065C111.975 23.0915 111.42 23.4928 110.952 24.0061L112.43 25.3533ZM113.433 24.6291C113.796 24.464 114.217 24.378 114.713 24.3903L114.763 22.3909C113.999 22.372 113.273 22.5047 112.605 22.8084L113.433 24.6291ZM114.72 24.3905C115.184 24.3987 115.519 24.4918 115.764 24.6262L116.728 22.8738C116.139 22.5498 115.469 22.4034 114.756 22.3908L114.72 24.3905ZM115.764 24.6262C116.043 24.7797 116.256 24.9774 116.42 25.224L118.087 24.1198C117.74 23.5955 117.282 23.1786 116.728 22.8738L115.764 24.6262ZM116.42 25.224C116.595 25.4889 116.723 25.8024 116.794 26.1783L118.759 25.806C118.643 25.1924 118.422 24.6256 118.087 24.1198L116.42 25.224ZM116.795 26.1803C116.869 26.5653 116.885 26.9787 116.837 27.4251L118.826 27.6374C118.893 27.0109 118.873 26.3983 118.759 25.8041L116.795 26.1803ZM116.84 27.3991L116.715 28.3366L118.698 28.6009L118.823 27.6634L116.84 27.3991ZM117.707 27.4688H111.175V29.4688H117.707V27.4688ZM112.163 28.6281L112.405 27.1281L110.43 26.8094L110.188 28.3094L112.163 28.6281ZM111.416 27.9687L115.728 27.9766L115.732 25.9766L111.419 25.9688L111.416 27.9687ZM116.711 27.1727L116.75 26.9774L114.789 26.5851L114.749 26.7804L116.711 27.1727ZM116.759 26.9252C116.818 26.5207 116.803 26.1136 116.694 25.7178L114.766 26.251C114.792 26.3447 114.804 26.4689 114.78 26.6373L116.759 26.9252ZM116.695 25.723C116.577 25.2855 116.339 24.8978 115.975 24.6041L114.72 26.1616C114.73 26.1699 114.748 26.1833 114.765 26.2458L116.695 25.723ZM115.975 24.6041C115.574 24.2812 115.095 24.1567 114.631 24.1412L114.564 26.1401C114.644 26.1427 114.69 26.1537 114.712 26.1606C114.731 26.1668 114.73 26.1695 114.72 26.1616L115.975 24.6041ZM114.626 24.141C114.108 24.126 113.592 24.2343 113.14 24.5324L114.242 26.202C114.279 26.1772 114.367 26.1344 114.568 26.1402L114.626 24.141ZM113.14 24.5324C112.762 24.7822 112.457 25.1105 112.228 25.5008L113.951 26.5148C114.034 26.3739 114.131 26.2751 114.242 26.202L113.14 24.5324ZM112.228 25.5008C112.023 25.8482 111.869 26.2217 111.764 26.6173L113.696 27.1327C113.757 26.9033 113.843 26.6987 113.951 26.5148L112.228 25.5008ZM111.765 26.6133C111.671 26.9606 111.601 27.3028 111.558 27.6394L113.542 27.8919C113.572 27.6555 113.623 27.404 113.695 27.1367L111.765 26.6133ZM111.555 27.6661L111.524 27.9786L113.514 28.1776L113.545 27.8651L111.555 27.6661ZM111.524 27.9842C111.49 28.3418 111.5 28.6995 111.554 29.0555L113.531 28.757C113.502 28.5609 113.496 28.3665 113.515 28.172L111.524 27.9842ZM111.554 29.0583C111.612 29.4329 111.727 29.7905 111.908 30.1209L113.662 29.1603C113.603 29.0533 113.557 28.9213 113.531 28.7542L111.554 29.0583ZM111.917 30.1368C112.123 30.4975 112.406 30.794 112.757 31.0164L113.828 29.3274C113.752 29.2789 113.697 29.2212 113.653 29.1445L111.917 30.1368ZM112.766 31.0221C113.17 31.2719 113.625 31.3757 114.081 31.3901L114.145 29.3911C113.944 29.3848 113.853 29.3427 113.819 29.3216L112.766 31.0221ZM114.088 31.3903C114.654 31.4045 115.199 31.2939 115.703 31.0455L114.819 29.2513C114.626 29.3467 114.405 29.3976 114.138 29.3909L114.088 31.3903ZM115.709 31.0429C116.167 30.8138 116.576 30.5109 116.934 30.1394L115.495 28.7512C115.29 28.963 115.064 29.1289 114.814 29.254L115.709 31.0429ZM115.445 30.0835L116.429 31.271L117.969 29.9946L116.984 28.8071L115.445 30.0835ZM116.365 30.0809C116.21 30.3148 116.014 30.5066 115.768 30.6612L116.833 32.3544C117.316 32.0507 117.719 31.6591 118.033 31.1847L116.365 30.0809ZM115.771 30.6591C115.502 30.8271 115.211 30.9506 114.894 31.0299L115.379 32.9701C115.895 32.841 116.38 32.6364 116.829 32.3565L115.771 30.6591ZM114.882 31.0328C114.549 31.1204 114.224 31.1603 113.907 31.1563L113.881 33.1562C114.387 33.1626 114.891 33.0984 115.39 32.9672L114.882 31.0328Z" fill="#D9D9D9"/>
</svg>
